<svg width="20" height="20" viewBox="0 0 20 20" fill="none" xmlns="http://www.w3.org/2000/svg">
<path fill-rule="evenodd" clip-rule="evenodd" d="M9.16797 1.66699C5.02583 1.66699 1.66797 5.02486 1.66797 9.16699C1.66797 13.3091 5.02583 16.667 9.16797 16.667C10.9388 16.667 12.5663 16.0533 13.8494 15.0269L16.912 18.0896C17.2375 18.415 17.7651 18.415 18.0906 18.0896C18.416 17.7641 18.416 17.2365 18.0906 16.9111L15.0279 13.8484C16.0542 12.5653 16.668 10.9378 16.668 9.16699C16.668 5.02486 13.3101 1.66699 9.16797 1.66699ZM3.33464 9.16699C3.33464 5.94533 5.94631 3.33366 9.16797 3.33366C12.3896 3.33366 15.0013 5.94533 15.0013 9.16699C15.0013 12.3887 12.3896 15.0003 9.16797 15.0003C5.94631 15.0003 3.33464 12.3887 3.33464 9.16699Z" fill="#667185"/>
</svg>
