<svg width="40" height="41" viewBox="0 0 40 41" fill="none" xmlns="http://www.w3.org/2000/svg">
<path d="M20 3C16.5388 3 13.1554 4.02636 10.2775 5.94928C7.39967 7.87221 5.15665 10.6053 3.83212 13.803C2.50758 17.0007 2.16102 20.5194 2.83627 23.9141C3.51151 27.3087 5.17822 30.4269 7.62564 32.8744C10.0731 35.3218 13.1913 36.9885 16.5859 37.6637C19.9806 38.339 23.4993 37.9924 26.697 36.6679C29.8947 35.3434 32.6278 33.1003 34.5507 30.2225C36.4737 27.3446 37.5 23.9612 37.5 20.5C37.5 15.8587 35.6563 11.4075 32.3744 8.12563C29.0925 4.84374 24.6413 3 20 3V3ZM20 35.5C17.0333 35.5 14.1332 34.6203 11.6665 32.972C9.19972 31.3238 7.27713 28.9811 6.14181 26.2403C5.0065 23.4994 4.70945 20.4834 5.28823 17.5736C5.86701 14.6639 7.29562 11.9912 9.39341 9.8934C11.4912 7.79561 14.1639 6.367 17.0737 5.78822C19.9834 5.20944 22.9994 5.50649 25.7403 6.64181C28.4812 7.77712 30.8238 9.69971 32.4721 12.1664C34.1203 14.6332 35 17.5333 35 20.5C35 24.4782 33.4197 28.2936 30.6066 31.1066C27.7936 33.9196 23.9783 35.5 20 35.5Z" fill="#027FEE"/>
</svg>
