<svg width="40" height="40" viewBox="0 0 40 40" fill="none" xmlns="http://www.w3.org/2000/svg">
<path d="M20 2.5C16.5388 2.5 13.1554 3.52636 10.2775 5.44928C7.39967 7.37221 5.15665 10.1053 3.83212 13.303C2.50758 16.5007 2.16102 20.0194 2.83627 23.4141C3.51151 26.8087 5.17822 29.9269 7.62564 32.3744C10.0731 34.8218 13.1913 36.4885 16.5859 37.1637C19.9806 37.839 23.4993 37.4924 26.697 36.1679C29.8947 34.8434 32.6278 32.6003 34.5507 29.7225C36.4737 26.8446 37.5 23.4612 37.5 20C37.5 15.3587 35.6563 10.9075 32.3744 7.62563C29.0925 4.34374 24.6413 2.5 20 2.5V2.5ZM20 35C17.0333 35 14.1332 34.1203 11.6665 32.472C9.19972 30.8238 7.27713 28.4811 6.14181 25.7403C5.0065 22.9994 4.70945 19.9834 5.28823 17.0736C5.86701 14.1639 7.29562 11.4912 9.39341 9.3934C11.4912 7.29561 14.1639 5.867 17.0737 5.28822C19.9834 4.70944 22.9994 5.00649 25.7403 6.14181C28.4812 7.27712 30.8238 9.19971 32.4721 11.6664C34.1203 14.1332 35 17.0333 35 20C35 23.9782 33.4197 27.7936 30.6066 30.6066C27.7936 33.4196 23.9783 35 20 35Z" fill="#027FEE"/>
</svg>
