<svg width="104" height="104" viewBox="0 0 104 104" fill="none" xmlns="http://www.w3.org/2000/svg">
<circle cx="52.0004" cy="51.767" r="51.767" fill="white"/>
<path d="M63.6132 66.8162C60.8439 66.8162 58.4765 65.8335 56.5112 63.8681C54.6352 61.8135 53.6972 59.3121 53.6972 56.3641C53.6972 50.8255 55.3052 45.8675 58.5212 41.4901C61.8265 37.0235 65.6232 33.6735 69.9112 31.4402L70.4472 31.3062C71.1619 31.3062 71.5192 31.6635 71.5192 32.3781C71.5192 32.6461 71.3852 32.9142 71.1172 33.1822C68.9732 35.0581 67.3205 36.9788 66.1592 38.9441C64.9979 40.8202 64.4172 42.5175 64.4172 44.0361C64.4172 45.6441 65.2659 46.9842 66.9632 48.0562C69.0179 49.2175 70.5812 50.4235 71.6532 51.6742C72.8145 52.9248 73.3952 54.6668 73.3952 56.9002C73.3952 59.6695 72.4125 62.0368 70.4472 64.0022C68.5712 65.8782 66.2932 66.8162 63.6132 66.8162ZM35.6072 66.8162C32.9272 66.8162 30.6045 65.8335 28.6392 63.8681C26.7632 61.8135 25.8252 59.3121 25.8252 56.3641C25.8252 50.8255 27.4779 45.8675 30.7832 41.4901C34.0885 37.0235 37.7959 33.7181 41.9052 31.5741C42.0839 31.4848 42.3072 31.4402 42.5752 31.4402C43.2005 31.4402 43.5132 31.7975 43.5132 32.5122C43.5132 32.7801 43.4239 33.0035 43.2452 33.1822C41.1012 35.1475 39.4485 37.1128 38.2872 39.0781C37.1259 40.9542 36.5452 42.6068 36.5452 44.0361C36.5452 46.0908 37.3939 47.4308 39.0912 48.0562C41.0565 49.0388 42.5752 50.2001 43.6472 51.5401C44.8085 52.8802 45.3892 54.6668 45.3892 56.9002C45.3892 59.6695 44.4512 62.0368 42.5752 64.0022C40.6992 65.8782 38.3765 66.8162 35.6072 66.8162Z" fill="#2E4049"/>
</svg>
