<svg width="19" height="18" viewBox="0 0 19 18" fill="none" xmlns="http://www.w3.org/2000/svg">
<path fill-rule="evenodd" clip-rule="evenodd" d="M18.2217 9.10594C18.2217 4.36614 14.2307 0.522949 9.30861 0.522949C4.38651 0.522949 0.395508 4.36614 0.395508 9.10594C0.395508 13.3898 3.65436 16.9406 7.91594 17.5851V11.5877H5.65225V9.10594H7.91594V7.215C7.91594 5.06427 9.24694 3.8753 11.2826 3.8753C12.2579 3.8753 13.2781 4.04313 13.2781 4.04313V6.15554H12.1536C11.0471 6.15554 10.7009 6.81689 10.7009 7.49663V9.10594H13.1727L12.778 11.5877H10.7013V17.5859C14.9629 16.9418 18.2217 13.3909 18.2217 9.10594V9.10594Z" fill="#2E4049"/>
</svg>
