<svg width="19" height="18" viewBox="0 0 19 18" fill="none" xmlns="http://www.w3.org/2000/svg">
<path fill-rule="evenodd" clip-rule="evenodd" d="M18.6075 8.63041C18.6075 3.93291 14.6522 0.124023 9.77398 0.124023C4.89581 0.124023 0.94043 3.93291 0.94043 8.63041C0.94043 12.876 4.1702 16.3951 8.39374 17.0339V11.09H6.15025V8.63041H8.39374V6.75635C8.39374 4.62481 9.71286 3.44645 11.7304 3.44645C12.6969 3.44645 13.7081 3.61278 13.7081 3.61278V5.70634H12.5936C11.4969 5.70634 11.1538 6.36179 11.1538 7.03546V8.63041H13.6036L13.2124 11.09H11.1542V17.0346C15.3778 16.3963 18.6075 12.8771 18.6075 8.63041V8.63041Z" fill="#2E4049"/>
</svg>
