<svg width="60" height="60" viewBox="0 0 60 60" fill="none" xmlns="http://www.w3.org/2000/svg">
<path d="M30 41.25C32.9837 41.25 35.8452 40.0647 37.955 37.955C40.0647 35.8452 41.25 32.9837 41.25 30C41.25 27.0163 40.0647 24.1548 37.955 22.045C35.8452 19.9353 32.9837 18.75 30 18.75C27.0163 18.75 24.1548 19.9353 22.045 22.045C19.9353 24.1548 18.75 27.0163 18.75 30C18.75 32.9837 19.9353 35.8452 22.045 37.955C24.1548 40.0647 27.0163 41.25 30 41.25ZM30 7.5C27.0453 7.5 24.1194 8.08198 21.3896 9.21271C18.6598 10.3434 16.1794 12.0008 14.0901 14.0901C12.0008 16.1794 10.3434 18.6598 9.21271 21.3896C8.08198 24.1194 7.5 27.0453 7.5 30C7.5 32.9547 8.08198 35.8806 9.21271 38.6104C10.3434 41.3402 12.0008 43.8206 14.0901 45.9099C16.1794 47.9992 18.6598 49.6566 21.3896 50.7873C24.1194 51.918 27.0453 52.5 30 52.5C35.9674 52.5 41.6903 50.1295 45.9099 45.9099C50.1295 41.6903 52.5 35.9674 52.5 30C52.5 24.0326 50.1295 18.3097 45.9099 14.0901C41.6903 9.87053 35.9674 7.5 30 7.5ZM11.25 30C11.25 25.0272 13.2254 20.2581 16.7417 16.7417C20.2581 13.2254 25.0272 11.25 30 11.25C34.9728 11.25 39.7419 13.2254 43.2583 16.7417C46.7746 20.2581 48.75 25.0272 48.75 30C48.75 34.9728 46.7746 39.7419 43.2583 43.2583C39.7419 46.7746 34.9728 48.75 30 48.75C25.0272 48.75 20.2581 46.7746 16.7417 43.2583C13.2254 39.7419 11.25 34.9728 11.25 30Z" fill="#FFA500"/>
</svg>
