<svg width="18" height="18" viewBox="0 0 18 18" fill="none" xmlns="http://www.w3.org/2000/svg">
<path d="M12.7875 1.49036C13.7628 1.49316 14.6974 1.86751 15.3871 2.53164C16.0768 3.19577 16.4655 4.09572 16.4684 5.03494V12.1233C16.4655 13.0626 16.0768 13.9625 15.3871 14.6266C14.6974 15.2908 13.7628 15.6651 12.7875 15.6679H5.42647C4.45113 15.6651 3.51657 15.2908 2.8269 14.6266C2.13722 13.9625 1.74848 13.0626 1.74557 12.1233V5.03494C1.74848 4.09572 2.13722 3.19577 2.8269 2.53164C3.51657 1.86751 4.45113 1.49316 5.42647 1.49036H12.7875V1.49036ZM12.7875 0.0727539H5.42647C2.59225 0.0727539 0.273438 2.30568 0.273438 5.03494V12.1233C0.273438 14.8526 2.59225 17.0855 5.42647 17.0855H12.7875C15.6217 17.0855 17.9405 14.8526 17.9405 12.1233V5.03494C17.9405 2.30568 15.6217 0.0727539 12.7875 0.0727539V0.0727539Z" fill="#2E4049"/>
<path d="M13.8929 5.03529C13.6745 5.03529 13.461 4.97293 13.2794 4.85609C13.0979 4.73925 12.9563 4.57319 12.8728 4.3789C12.7892 4.1846 12.7673 3.97081 12.8099 3.76455C12.8525 3.55829 12.9577 3.36883 13.1121 3.22012C13.2665 3.07142 13.4633 2.97015 13.6775 2.92912C13.8917 2.8881 14.1137 2.90915 14.3154 2.98963C14.5172 3.07011 14.6897 3.20639 14.811 3.38125C14.9323 3.55611 14.9971 3.76169 14.9971 3.97199C14.9974 4.11171 14.969 4.25011 14.9137 4.37925C14.8583 4.50839 14.777 4.62573 14.6744 4.72453C14.5718 4.82332 14.4499 4.90163 14.3158 4.95496C14.1817 5.00829 14.038 5.03559 13.8929 5.03529V5.03529ZM9.10818 5.7439C9.69058 5.7439 10.2599 5.9102 10.7441 6.22178C11.2284 6.53336 11.6058 6.97622 11.8287 7.49436C12.0516 8.01249 12.1099 8.58263 11.9963 9.13268C11.8826 9.68273 11.6022 10.188 11.1904 10.5846C10.7785 10.9811 10.2539 11.2512 9.68266 11.3606C9.11145 11.47 8.51938 11.4138 7.98132 11.1992C7.44325 10.9846 6.98336 10.6212 6.6598 10.1549C6.33624 9.68855 6.16354 9.14031 6.16354 8.57949C6.16437 7.82769 6.47488 7.10691 7.02693 6.57531C7.57897 6.04371 8.32747 5.7447 9.10818 5.7439V5.7439ZM9.10818 4.3263C8.23463 4.3263 7.38069 4.57574 6.65435 5.04309C5.92802 5.51043 5.36191 6.17469 5.02762 6.95186C4.69332 7.72903 4.60585 8.58421 4.77628 9.40925C4.9467 10.2343 5.36735 10.9921 5.98505 11.5869C6.60275 12.1818 7.38974 12.5868 8.24651 12.751C9.10328 12.9151 9.99135 12.8308 10.7984 12.5089C11.6055 12.187 12.2953 11.6419 12.7806 10.9424C13.2659 10.243 13.525 9.42069 13.525 8.57949C13.525 7.45147 13.0596 6.36966 12.2313 5.57203C11.403 4.7744 10.2796 4.3263 9.10818 4.3263V4.3263Z" fill="#2E4049"/>
</svg>
