<svg width="19" height="18" viewBox="0 0 19 18" fill="none" xmlns="http://www.w3.org/2000/svg">
<path d="M13.1961 1.90205C14.1802 1.90488 15.1232 2.2826 15.8191 2.95271C16.515 3.62282 16.9072 4.53088 16.9102 5.47855V12.6308C16.9072 13.5785 16.515 14.4865 15.8191 15.1566C15.1232 15.8267 14.1802 16.2045 13.1961 16.2073H5.76878C4.78465 16.2045 3.84168 15.8267 3.14579 15.1566C2.44991 14.4865 2.05766 13.5785 2.05472 12.6308V5.47855C2.05766 4.53088 2.44991 3.62282 3.14579 2.95271C3.84168 2.2826 4.78465 1.90488 5.76878 1.90205H13.1961V1.90205ZM13.1961 0.47168H5.76878C2.90903 0.47168 0.569336 2.72471 0.569336 5.47855V12.6308C0.569336 15.3846 2.90903 17.6377 5.76878 17.6377H13.1961C16.0559 17.6377 18.3955 15.3846 18.3955 12.6308V5.47855C18.3955 2.72471 16.0559 0.47168 13.1961 0.47168V0.47168Z" fill="#2E4049"/>
<path d="M14.3102 5.47876C14.0899 5.47876 13.8745 5.41583 13.6912 5.29794C13.508 5.18006 13.3652 5.0125 13.2809 4.81645C13.1966 4.62041 13.1745 4.40469 13.2175 4.19658C13.2605 3.98846 13.3666 3.79729 13.5224 3.64725C13.6782 3.4972 13.8768 3.39502 14.0929 3.35362C14.309 3.31223 14.533 3.33347 14.7366 3.41468C14.9402 3.49588 15.1142 3.63339 15.2366 3.80983C15.359 3.98626 15.4244 4.19369 15.4244 4.40588C15.4247 4.54686 15.3961 4.68651 15.3402 4.81681C15.2843 4.94712 15.2023 5.06551 15.0987 5.16519C14.9952 5.26488 14.8723 5.3439 14.737 5.39771C14.6016 5.45152 14.4566 5.47906 14.3102 5.47876V5.47876ZM9.48243 6.19375C10.0701 6.19375 10.6445 6.36155 11.1331 6.67594C11.6217 6.99032 12.0026 7.43717 12.2274 7.95997C12.4523 8.48277 12.5112 9.05805 12.3965 9.61305C12.2819 10.1681 11.9989 10.6779 11.5834 11.078C11.1678 11.4781 10.6384 11.7506 10.0621 11.861C9.48573 11.9714 8.88833 11.9148 8.34542 11.6982C7.80251 11.4817 7.33847 11.1149 7.012 10.6444C6.68552 10.1739 6.51127 9.62075 6.51127 9.05488C6.51211 8.29631 6.82541 7.56904 7.38243 7.03265C7.93945 6.49626 8.69469 6.19456 9.48243 6.19375V6.19375ZM9.48243 4.76338C8.60101 4.76338 7.73938 5.01507 7.00651 5.48663C6.27363 5.95818 5.70242 6.62842 5.36512 7.41259C5.02781 8.19676 4.93956 9.05964 5.11151 9.89211C5.28347 10.7246 5.70791 11.4892 6.33117 12.0894C6.95443 12.6896 7.74852 13.0983 8.613 13.2639C9.47749 13.4295 10.3736 13.3445 11.1879 13.0197C12.0022 12.6949 12.6982 12.1448 13.1879 11.4391C13.6776 10.7334 13.939 9.90365 13.939 9.05488C13.939 7.9167 13.4695 6.82514 12.6337 6.02033C11.7979 5.21552 10.6644 4.76338 9.48243 4.76338V4.76338Z" fill="#2E4049"/>
</svg>
