<svg width="26" height="26" viewBox="0 0 26 26" fill="none" xmlns="http://www.w3.org/2000/svg">
<path d="M18.2682 2.75157C19.692 2.75566 21.0563 3.30214 22.0631 4.27164C23.0699 5.24115 23.6374 6.55491 23.6416 7.92599V18.2737C23.6374 19.6448 23.0699 20.9586 22.0631 21.9281C21.0563 22.8976 19.692 23.4441 18.2682 23.4482H7.52247C6.09866 23.4441 4.73437 22.8976 3.72757 21.9281C2.72078 20.9586 2.15328 19.6448 2.14903 18.2737V7.92599C2.15328 6.55491 2.72078 5.24115 3.72757 4.27164C4.73437 3.30214 6.09866 2.75566 7.52247 2.75157H18.2682V2.75157ZM18.2682 0.682129H7.52247C3.38503 0.682129 0 3.94178 0 7.92599V18.2737C0 22.2579 3.38503 25.5176 7.52247 25.5176H18.2682C22.4057 25.5176 25.7907 22.2579 25.7907 18.2737V7.92599C25.7907 3.94178 22.4057 0.682129 18.2682 0.682129V0.682129Z" fill="#2E4049"/>
<path d="M19.8817 7.92621C19.5629 7.92621 19.2512 7.83518 18.9861 7.66462C18.7211 7.49406 18.5145 7.25163 18.3925 6.968C18.2705 6.68437 18.2385 6.37227 18.3007 6.07117C18.3629 5.77007 18.5164 5.49349 18.7419 5.27641C18.9673 5.05933 19.2545 4.9115 19.5672 4.8516C19.8799 4.79171 20.204 4.82245 20.4985 4.93993C20.7931 5.05742 21.0448 5.25637 21.2219 5.51163C21.3991 5.76689 21.4936 6.067 21.4936 6.37399C21.494 6.57796 21.4527 6.78 21.3718 6.96852C21.291 7.15704 21.1723 7.32833 21.0225 7.47256C20.8727 7.61678 20.6948 7.7311 20.4991 7.80895C20.3033 7.8868 20.0935 7.92665 19.8817 7.92621V7.92621ZM12.8969 8.96065C13.7471 8.96065 14.5782 9.20343 15.2851 9.65827C15.992 10.1131 16.543 10.7596 16.8683 11.516C17.1937 12.2724 17.2788 13.1047 17.1129 13.9076C16.9471 14.7106 16.5377 15.4482 15.9365 16.0271C15.3353 16.606 14.5694 17.0003 13.7355 17.16C12.9017 17.3197 12.0373 17.2377 11.2519 16.9244C10.4664 16.6111 9.79504 16.0806 9.3227 15.3998C8.85036 14.7191 8.59825 13.9188 8.59825 13.1001C8.59947 12.0026 9.05275 10.9504 9.85864 10.1744C10.6645 9.39832 11.7572 8.96183 12.8969 8.96065V8.96065ZM12.8969 6.89122C11.6217 6.89122 10.3751 7.25536 9.31476 7.9376C8.25444 8.61984 7.42803 9.58953 6.94002 10.7241C6.45201 11.8586 6.32433 13.107 6.57311 14.3114C6.8219 15.5158 7.43598 16.6221 8.3377 17.4904C9.23942 18.3587 10.3883 18.9501 11.639 19.1897C12.8897 19.4292 14.1861 19.3063 15.3643 18.8363C16.5425 18.3664 17.5495 17.5706 18.2579 16.5495C18.9664 15.5285 19.3446 14.3281 19.3446 13.1001C19.3446 11.4534 18.6653 9.87414 17.4561 8.70975C16.2469 7.54536 14.6069 6.89122 12.8969 6.89122V6.89122Z" fill="#2E4049"/>
</svg>
