<svg width="19" height="19" viewBox="0 0 19 19" fill="none" xmlns="http://www.w3.org/2000/svg">
<path d="M9.51239 0.605469C4.55568 0.605469 0.536621 4.62274 0.536621 9.57724C0.536621 13.2501 2.74851 16.4062 5.91006 17.796C5.88602 17.1712 5.90606 16.4182 6.06634 15.7373C6.23864 15.0084 7.22037 10.8469 7.22037 10.8469C7.22037 10.8469 6.93186 10.2741 6.93186 9.42904C6.93186 8.0993 7.70121 7.10599 8.6629 7.10599C9.48034 7.10599 9.87303 7.7188 9.87303 8.45176C9.87303 9.27284 9.3481 10.4984 9.07963 11.6359C8.85524 12.5892 9.55647 13.3622 10.4981 13.3622C12.1971 13.3622 13.3431 11.1793 13.3431 8.59194C13.3431 6.62536 12.0168 5.15544 9.60856 5.15544C6.88778 5.15544 5.1888 7.1861 5.1888 9.45307C5.1888 10.2341 5.4212 10.7868 5.78184 11.2114C5.94613 11.4076 5.97017 11.4877 5.91006 11.712C5.86599 11.8763 5.76982 12.2728 5.72574 12.433C5.66563 12.6613 5.48131 12.7414 5.27695 12.6573C4.02275 12.1446 3.43772 10.7748 3.43772 9.22878C3.43772 6.68144 5.5895 3.62543 9.85299 3.62543C13.279 3.62543 15.535 6.10468 15.535 8.76417C15.535 12.2848 13.5755 14.9122 10.6905 14.9122C9.72076 14.9122 8.81116 14.3875 8.49861 13.7948C8.49861 13.7948 7.9777 15.8615 7.8655 16.262C7.67717 16.9549 7.30451 17.6438 6.96391 18.1845C7.79012 18.4282 8.64698 18.5522 9.50839 18.553C14.4651 18.553 18.4842 14.5357 18.4842 9.58124C18.4842 4.62674 14.4691 0.605469 9.51239 0.605469Z" fill="#2E4049"/>
</svg>
