<svg width="19" height="19" viewBox="0 0 19 19" fill="none" xmlns="http://www.w3.org/2000/svg">
<path d="M9.37789 0C4.37655 0 0.321289 4.05345 0.321289 9.05256C0.321289 12.7585 2.5531 15.943 5.74312 17.3454C5.71886 16.7149 5.73908 15.9551 5.90081 15.2681C6.07466 14.5326 7.06523 10.3337 7.06523 10.3337C7.06523 10.3337 6.77412 9.75575 6.77412 8.90303C6.77412 7.56132 7.5504 6.55907 8.52075 6.55907C9.34555 6.55907 9.74178 7.17739 9.74178 7.91695C9.74178 8.74542 9.21213 9.98207 8.94124 11.1298C8.71482 12.0916 9.42237 12.8716 10.3725 12.8716C12.0868 12.8716 13.2431 10.6691 13.2431 8.0584C13.2431 6.07411 11.9048 4.59094 9.47493 4.59094C6.72965 4.59094 5.01536 6.63989 5.01536 8.92728C5.01536 9.71534 5.24986 10.273 5.61374 10.7014C5.77951 10.8994 5.80377 10.9803 5.74312 11.2066C5.69865 11.3723 5.60161 11.7724 5.55714 11.934C5.49649 12.1644 5.31051 12.2452 5.10431 12.1603C3.83881 11.6431 3.24851 10.2609 3.24851 8.70097C3.24851 6.13069 5.41967 3.04716 9.72156 3.04716C13.1784 3.04716 15.4547 5.54874 15.4547 8.23217C15.4547 11.7845 13.4776 14.4356 10.5666 14.4356C9.58814 14.4356 8.67035 13.9062 8.35498 13.3081C8.35498 13.3081 7.82938 15.3934 7.71617 15.7975C7.52614 16.4967 7.15013 17.1918 6.80647 17.7374C7.64011 17.9832 8.50469 18.1084 9.37385 18.1092C14.3752 18.1092 18.4305 14.0557 18.4305 9.05661C18.4305 4.05749 14.3792 0 9.37789 0Z" fill="#2E4049"/>
</svg>
