<svg width="27" height="27" viewBox="0 0 27 27" fill="none" xmlns="http://www.w3.org/2000/svg">
<path d="M13.3168 0C6.08095 0 0.213867 5.86446 0.213867 13.0971C0.213867 18.4587 3.44281 23.0661 8.05809 25.095C8.02299 24.1829 8.05224 23.0836 8.28622 22.0897C8.53775 21.0255 9.97089 14.9506 9.97089 14.9506C9.97089 14.9506 9.54972 14.1145 9.54972 12.8808C9.54972 10.9396 10.6728 9.48955 12.0767 9.48955C13.27 9.48955 13.8433 10.3841 13.8433 11.4541C13.8433 12.6527 13.077 14.4419 12.6851 16.1024C12.3575 17.494 13.3812 18.6224 14.7558 18.6224C17.236 18.6224 18.909 15.4359 18.909 11.6588C18.909 8.78792 16.9728 6.6421 13.4572 6.6421C9.48538 6.6421 7.00517 9.60649 7.00517 12.9159C7.00517 14.056 7.34445 14.8629 7.87091 15.4826C8.11074 15.7691 8.14583 15.8861 8.05809 16.2135C7.99375 16.4532 7.85336 17.0321 7.78901 17.266C7.70127 17.5992 7.43219 17.7162 7.13386 17.5934C5.30296 16.845 4.44893 14.8453 4.44893 12.5884C4.44893 8.86978 7.59013 4.40858 13.814 4.40858C18.8154 4.40858 22.1087 8.02782 22.1087 11.9102C22.1087 17.0496 19.2482 20.8852 15.0366 20.8852C13.621 20.8852 12.2932 20.1193 11.8369 19.2539C11.8369 19.2539 11.0764 22.2709 10.9127 22.8556C10.6377 23.8671 10.0937 24.8728 9.59652 25.6621C10.8026 26.0178 12.0535 26.1989 13.311 26.2001C20.5468 26.2001 26.4139 20.3356 26.4139 13.103C26.4139 5.87031 20.5527 0 13.3168 0Z" fill="#2E4049"/>
</svg>
