<svg width="318" height="318" viewBox="0 0 318 318" fill="none" xmlns="http://www.w3.org/2000/svg">
<path d="M303 0H15C6.71573 0 0 6.71573 0 15V303C0 311.284 6.71573 318 15 318H303C311.284 318 318 311.284 318 303V15C318 6.71573 311.284 0 303 0Z" fill="#F4F4F4"/>
<path d="M43.6035 33.6104H33.6074V43.6064H43.6035V33.6104Z" fill="#2E4049"/>
<path d="M53.6035 33.6104H43.6074V43.6064H53.6035V33.6104Z" fill="#2E4049"/>
<path d="M63.5986 33.6104H53.6025V43.6064H63.5986V33.6104Z" fill="#2E4049"/>
<path d="M73.5928 33.6104H63.5967V43.6064H73.5928V33.6104Z" fill="#2E4049"/>
<path d="M83.5928 33.6104H73.5967V43.6064H83.5928V33.6104Z" fill="#2E4049"/>
<path d="M93.5869 33.6104H83.5908V43.6064H93.5869V33.6104Z" fill="#2E4049"/>
<path d="M103.582 33.6104H93.5859V43.6064H103.582V33.6104Z" fill="#2E4049"/>
<path d="M123.576 33.6104H113.58V43.6064H123.576V33.6104Z" fill="#2E4049"/>
<path d="M173.555 33.6104H163.559V43.6064H173.555V33.6104Z" fill="#2E4049"/>
<path d="M183.549 33.6104H173.553V43.6064H183.549V33.6104Z" fill="#2E4049"/>
<path d="M193.544 33.6104H183.548V43.6064H193.544V33.6104Z" fill="#2E4049"/>
<path d="M203.544 33.6104H193.548V43.6064H203.544V33.6104Z" fill="#2E4049"/>
<path d="M223.532 33.6104H213.536V43.6064H223.532V33.6104Z" fill="#2E4049"/>
<path d="M233.533 33.6104H223.537V43.6064H233.533V33.6104Z" fill="#2E4049"/>
<path d="M243.527 33.6104H233.531V43.6064H243.527V33.6104Z" fill="#2E4049"/>
<path d="M253.521 33.6104H243.525V43.6064H253.521V33.6104Z" fill="#2E4049"/>
<path d="M263.517 33.6104H253.521V43.6064H263.517V33.6104Z" fill="#2E4049"/>
<path d="M273.517 33.6104H263.521V43.6064H273.517V33.6104Z" fill="#2E4049"/>
<path d="M283.511 33.6104H273.515V43.6064H283.511V33.6104Z" fill="#2E4049"/>
<path d="M43.6035 43.6077H33.6074V53.6037H43.6035V43.6077Z" fill="#2E4049"/>
<path d="M103.582 43.6077H93.5859V53.6037H103.582V43.6077Z" fill="#2E4049"/>
<path d="M123.576 43.6077H113.58V53.6037H123.576V43.6077Z" fill="#2E4049"/>
<path d="M153.565 43.6077H143.569V53.6037H153.565V43.6077Z" fill="#2E4049"/>
<path d="M163.561 43.6077H153.564V53.6037H163.561V43.6077Z" fill="#2E4049"/>
<path d="M203.544 43.6077H193.548V53.6037H203.544V43.6077Z" fill="#2E4049"/>
<path d="M223.538 43.6077H213.542V53.6037H223.538V43.6077Z" fill="#2E4049"/>
<path d="M283.511 43.6077H273.515V53.6037H283.511V43.6077Z" fill="#2E4049"/>
<path d="M43.6035 53.6021H33.6074V63.5981H43.6035V53.6021Z" fill="#2E4049"/>
<path d="M63.5986 53.6021H53.6025V63.5981H63.5986V53.6021Z" fill="#2E4049"/>
<path d="M73.5928 53.6021H63.5967V63.5981H73.5928V53.6021Z" fill="#2E4049"/>
<path d="M83.5928 53.6021H73.5967V63.5981H83.5928V53.6021Z" fill="#2E4049"/>
<path d="M103.582 53.6021H93.5859V63.5981H103.582V53.6021Z" fill="#2E4049"/>
<path d="M123.576 53.6021H113.58V63.5981H123.576V53.6021Z" fill="#2E4049"/>
<path d="M133.571 53.6021H123.575V63.5981H133.571V53.6021Z" fill="#2E4049"/>
<path d="M163.561 53.6021H153.564V63.5981H163.561V53.6021Z" fill="#2E4049"/>
<path d="M193.544 53.6021H183.548V63.5981H193.544V53.6021Z" fill="#2E4049"/>
<path d="M203.544 53.6021H193.548V63.5981H203.544V53.6021Z" fill="#2E4049"/>
<path d="M223.538 53.6021H213.542V63.5981H223.538V53.6021Z" fill="#2E4049"/>
<path d="M243.527 53.6021H233.531V63.5981H243.527V53.6021Z" fill="#2E4049"/>
<path d="M253.521 53.6021H243.525V63.5981H253.521V53.6021Z" fill="#2E4049"/>
<path d="M263.517 53.6021H253.521V63.5981H263.517V53.6021Z" fill="#2E4049"/>
<path d="M283.511 53.6021H273.515V63.5981H283.511V53.6021Z" fill="#2E4049"/>
<path d="M43.6035 63.5994H33.6074V73.5954H43.6035V63.5994Z" fill="#2E4049"/>
<path d="M63.5986 63.5994H53.6025V73.5954H63.5986V63.5994Z" fill="#2E4049"/>
<path d="M73.5928 63.5994H63.5967V73.5954H73.5928V63.5994Z" fill="#2E4049"/>
<path d="M83.5928 63.5994H73.5967V73.5954H83.5928V63.5994Z" fill="#2E4049"/>
<path d="M103.582 63.5994H93.5859V73.5954H103.582V63.5994Z" fill="#2E4049"/>
<path d="M123.576 63.5994H113.58V73.5954H123.576V63.5994Z" fill="#2E4049"/>
<path d="M133.571 63.5994H123.575V73.5954H133.571V63.5994Z" fill="#2E4049"/>
<path d="M143.565 63.5994H133.569V73.5954H143.565V63.5994Z" fill="#2E4049"/>
<path d="M163.561 63.5994H153.564V73.5954H163.561V63.5994Z" fill="#2E4049"/>
<path d="M203.544 63.5994H193.548V73.5954H203.544V63.5994Z" fill="#2E4049"/>
<path d="M223.538 63.5994H213.542V73.5954H223.538V63.5994Z" fill="#2E4049"/>
<path d="M243.527 63.5994H233.531V73.5954H243.527V63.5994Z" fill="#2E4049"/>
<path d="M253.521 63.5994H243.525V73.5954H253.521V63.5994Z" fill="#2E4049"/>
<path d="M263.517 63.5994H253.521V73.5954H263.517V63.5994Z" fill="#2E4049"/>
<path d="M283.511 63.5994H273.515V73.5954H283.511V63.5994Z" fill="#2E4049"/>
<path d="M43.6035 73.594H33.6074V83.5901H43.6035V73.594Z" fill="#2E4049"/>
<path d="M63.5986 73.594H53.6025V83.5901H63.5986V73.594Z" fill="#2E4049"/>
<path d="M73.5928 73.594H63.5967V83.5901H73.5928V73.594Z" fill="#2E4049"/>
<path d="M83.5928 73.594H73.5967V83.5901H83.5928V73.594Z" fill="#2E4049"/>
<path d="M103.582 73.594H93.5859V83.5901H103.582V73.594Z" fill="#2E4049"/>
<path d="M133.571 73.594H123.575V83.5901H133.571V73.594Z" fill="#2E4049"/>
<path d="M143.565 73.594H133.569V83.5901H143.565V73.594Z" fill="#2E4049"/>
<path d="M163.561 73.594H153.564V83.5901H163.561V73.594Z" fill="#2E4049"/>
<path d="M183.549 73.594H173.553V83.5901H183.549V73.594Z" fill="#2E4049"/>
<path d="M193.544 73.594H183.548V83.5901H193.544V73.594Z" fill="#2E4049"/>
<path d="M203.544 73.594H193.548V83.5901H203.544V73.594Z" fill="#2E4049"/>
<path d="M223.538 73.594H213.542V83.5901H223.538V73.594Z" fill="#2E4049"/>
<path d="M243.527 73.594H233.531V83.5901H243.527V73.594Z" fill="#2E4049"/>
<path d="M253.521 73.594H243.525V83.5901H253.521V73.594Z" fill="#2E4049"/>
<path d="M263.517 73.594H253.521V83.5901H263.517V73.594Z" fill="#2E4049"/>
<path d="M283.511 73.594H273.515V83.5901H283.511V73.594Z" fill="#2E4049"/>
<path d="M43.6035 83.5913H33.6074V93.5874H43.6035V83.5913Z" fill="#2E4049"/>
<path d="M103.582 83.5913H93.5859V93.5874H103.582V83.5913Z" fill="#2E4049"/>
<path d="M123.576 83.5913H113.58V93.5874H123.576V83.5913Z" fill="#2E4049"/>
<path d="M133.571 83.5913H123.575V93.5874H133.571V83.5913Z" fill="#2E4049"/>
<path d="M143.565 83.5913H133.569V93.5874H143.565V83.5913Z" fill="#2E4049"/>
<path d="M203.544 83.5913H193.548V93.5874H203.544V83.5913Z" fill="#2E4049"/>
<path d="M223.532 83.5913H213.536V93.5874H223.532V83.5913Z" fill="#2E4049"/>
<path d="M283.511 83.5913H273.515V93.5874H283.511V83.5913Z" fill="#2E4049"/>
<path d="M43.6035 93.5857H33.6074V103.582H43.6035V93.5857Z" fill="#2E4049"/>
<path d="M53.6035 93.5857H43.6074V103.582H53.6035V93.5857Z" fill="#2E4049"/>
<path d="M63.5986 93.5857H53.6025V103.582H63.5986V93.5857Z" fill="#2E4049"/>
<path d="M73.5928 93.5857H63.5967V103.582H73.5928V93.5857Z" fill="#2E4049"/>
<path d="M83.5928 93.5857H73.5967V103.582H83.5928V93.5857Z" fill="#2E4049"/>
<path d="M93.5869 93.5857H83.5908V103.582H93.5869V93.5857Z" fill="#2E4049"/>
<path d="M103.582 93.5857H93.5859V103.582H103.582V93.5857Z" fill="#2E4049"/>
<path d="M123.576 93.5857H113.58V103.582H123.576V93.5857Z" fill="#2E4049"/>
<path d="M143.565 93.5857H133.569V103.582H143.565V93.5857Z" fill="#2E4049"/>
<path d="M163.561 93.5857H153.564V103.582H163.561V93.5857Z" fill="#2E4049"/>
<path d="M183.549 93.5857H173.553V103.582H183.549V93.5857Z" fill="#2E4049"/>
<path d="M203.544 93.5857H193.548V103.582H203.544V93.5857Z" fill="#2E4049"/>
<path d="M223.538 93.5857H213.542V103.582H223.538V93.5857Z" fill="#2E4049"/>
<path d="M233.533 93.5857H223.537V103.582H233.533V93.5857Z" fill="#2E4049"/>
<path d="M243.527 93.5857H233.531V103.582H243.527V93.5857Z" fill="#2E4049"/>
<path d="M253.521 93.5857H243.525V103.582H253.521V93.5857Z" fill="#2E4049"/>
<path d="M263.517 93.5857H253.521V103.582H263.517V93.5857Z" fill="#2E4049"/>
<path d="M273.517 93.5857H263.521V103.582H273.517V93.5857Z" fill="#2E4049"/>
<path d="M283.511 93.5857H273.515V103.582H283.511V93.5857Z" fill="#2E4049"/>
<path d="M143.565 103.583H133.569V113.579H143.565V103.583Z" fill="#2E4049"/>
<path d="M153.565 103.583H143.569V113.579H153.565V103.583Z" fill="#2E4049"/>
<path d="M173.555 103.583H163.559V113.579H173.555V103.583Z" fill="#2E4049"/>
<path d="M203.544 103.583H193.548V113.579H203.544V103.583Z" fill="#2E4049"/>
<path d="M43.6035 113.58H33.6074V123.576H43.6035V113.58Z" fill="#2E4049"/>
<path d="M53.6035 113.58H43.6074V123.576H53.6035V113.58Z" fill="#2E4049"/>
<path d="M83.5928 113.578H73.5967V123.574H83.5928V113.578Z" fill="#2E4049"/>
<path d="M93.5869 113.58H83.5908V123.576H93.5869V113.58Z" fill="#2E4049"/>
<path d="M103.582 113.58H93.5859V123.576H103.582V113.58Z" fill="#2E4049"/>
<path d="M143.565 113.578H133.569V123.574H143.565V113.578Z" fill="#2E4049"/>
<path d="M163.561 113.578H153.564V123.574H163.561V113.578Z" fill="#2E4049"/>
<path d="M173.555 113.58H163.559V123.576H173.555V113.58Z" fill="#2E4049"/>
<path d="M203.544 113.58H193.548V123.576H203.544V113.58Z" fill="#2E4049"/>
<path d="M233.533 113.578H223.537V123.574H233.533V113.578Z" fill="#2E4049"/>
<path d="M253.521 113.578H243.525V123.574H253.521V113.578Z" fill="#2E4049"/>
<path d="M263.517 113.58H253.521V123.576H263.517V113.58Z" fill="#2E4049"/>
<path d="M273.517 113.58H263.521V123.576H273.517V113.58Z" fill="#2E4049"/>
<path d="M283.511 113.58H273.515V123.576H283.511V113.58Z" fill="#2E4049"/>
<path d="M73.5928 123.575H63.5967V133.571H73.5928V123.575Z" fill="#2E4049"/>
<path d="M93.5869 123.575H83.5908V133.571H93.5869V123.575Z" fill="#2E4049"/>
<path d="M173.555 123.575H163.559V133.571H173.555V123.575Z" fill="#2E4049"/>
<path d="M183.549 123.575H173.553V133.571H183.549V123.575Z" fill="#2E4049"/>
<path d="M193.544 123.575H183.548V133.571H193.544V123.575Z" fill="#2E4049"/>
<path d="M203.544 123.575H193.548V133.571H203.544V123.575Z" fill="#2E4049"/>
<path d="M243.527 123.575H233.531V133.571H243.527V123.575Z" fill="#2E4049"/>
<path d="M253.521 123.575H243.525V133.571H253.521V123.575Z" fill="#2E4049"/>
<path d="M273.517 123.575H263.521V133.571H273.517V123.575Z" fill="#2E4049"/>
<path d="M63.5986 133.572H53.6025V143.568H63.5986V133.572Z" fill="#2E4049"/>
<path d="M73.5928 133.572H63.5967V143.568H73.5928V133.572Z" fill="#2E4049"/>
<path d="M93.5869 133.572H83.5908V143.568H93.5869V133.572Z" fill="#2E4049"/>
<path d="M103.582 133.572H93.5859V143.568H103.582V133.572Z" fill="#2E4049"/>
<path d="M133.571 133.572H123.575V143.568H133.571V133.572Z" fill="#2E4049"/>
<path d="M143.565 133.572H133.569V143.568H143.565V133.572Z" fill="#2E4049"/>
<path d="M193.544 133.572H183.548V143.568H193.544V133.572Z" fill="#2E4049"/>
<path d="M203.544 133.572H193.548V143.568H203.544V133.572Z" fill="#2E4049"/>
<path d="M223.538 133.572H213.542V143.568H223.538V133.572Z" fill="#2E4049"/>
<path d="M233.533 133.572H223.537V143.568H233.533V133.572Z" fill="#2E4049"/>
<path d="M253.521 133.572H243.525V143.568H253.521V133.572Z" fill="#2E4049"/>
<path d="M263.517 133.572H253.521V143.568H263.517V133.572Z" fill="#2E4049"/>
<path d="M43.6035 143.567H33.6074V153.563H43.6035V143.567Z" fill="#2E4049"/>
<path d="M63.5986 143.567H53.6025V153.563H63.5986V143.567Z" fill="#2E4049"/>
<path d="M73.5928 143.567H63.5967V153.563H73.5928V143.567Z" fill="#2E4049"/>
<path d="M93.5869 143.567H83.5908V153.563H93.5869V143.567Z" fill="#2E4049"/>
<path d="M133.571 143.567H123.575V153.563H133.571V143.567Z" fill="#2E4049"/>
<path d="M163.561 143.567H153.564V153.563H163.561V143.567Z" fill="#2E4049"/>
<path d="M183.549 143.567H173.553V153.563H183.549V143.567Z" fill="#2E4049"/>
<path d="M233.533 143.567H223.537V153.563H233.533V143.567Z" fill="#2E4049"/>
<path d="M263.517 143.567H253.521V153.563H263.517V143.567Z" fill="#2E4049"/>
<path d="M273.517 143.567H263.521V153.563H273.517V143.567Z" fill="#2E4049"/>
<path d="M43.6035 153.564H33.6074V163.56H43.6035V153.564Z" fill="#2E4049"/>
<path d="M53.6035 153.564H43.6074V163.56H53.6035V153.564Z" fill="#2E4049"/>
<path d="M103.582 153.564H93.5859V163.56H103.582V153.564Z" fill="#2E4049"/>
<path d="M153.565 153.564H143.569V163.56H153.565V153.564Z" fill="#2E4049"/>
<path d="M173.555 153.564H163.559V163.56H173.555V153.564Z" fill="#2E4049"/>
<path d="M183.549 153.564H173.553V163.56H183.549V153.564Z" fill="#2E4049"/>
<path d="M193.544 153.564H183.548V163.56H193.544V153.564Z" fill="#2E4049"/>
<path d="M213.538 153.564H203.542V163.56H213.538V153.564Z" fill="#2E4049"/>
<path d="M223.538 153.564H213.542V163.56H223.538V153.564Z" fill="#2E4049"/>
<path d="M233.533 153.564H223.537V163.56H233.533V153.564Z" fill="#2E4049"/>
<path d="M253.521 153.564H243.525V163.56H253.521V153.564Z" fill="#2E4049"/>
<path d="M263.517 153.564H253.521V163.56H263.517V153.564Z" fill="#2E4049"/>
<path d="M273.517 153.564H263.521V163.56H273.517V153.564Z" fill="#2E4049"/>
<path d="M283.511 153.564H273.515V163.56H283.511V153.564Z" fill="#2E4049"/>
<path d="M43.6035 163.559H33.6074V173.555H43.6035V163.559Z" fill="#2E4049"/>
<path d="M73.5928 163.559H63.5967V173.555H73.5928V163.559Z" fill="#2E4049"/>
<path d="M133.571 163.559H123.575V173.555H133.571V163.559Z" fill="#2E4049"/>
<path d="M143.565 163.559H133.569V173.555H143.565V163.559Z" fill="#2E4049"/>
<path d="M163.561 163.559H153.564V173.555H163.561V163.559Z" fill="#2E4049"/>
<path d="M193.544 163.559H183.548V173.555H193.544V163.559Z" fill="#2E4049"/>
<path d="M203.544 163.559H193.548V173.555H203.544V163.559Z" fill="#2E4049"/>
<path d="M213.538 163.559H203.542V173.555H213.538V163.559Z" fill="#2E4049"/>
<path d="M243.527 163.559H233.531V173.555H243.527V163.559Z" fill="#2E4049"/>
<path d="M273.517 163.559H263.521V173.555H273.517V163.559Z" fill="#2E4049"/>
<path d="M63.5986 173.556H53.6025V183.552H63.5986V173.556Z" fill="#2E4049"/>
<path d="M73.5928 173.556H63.5967V183.552H73.5928V173.556Z" fill="#2E4049"/>
<path d="M83.5928 173.556H73.5967V183.552H83.5928V173.556Z" fill="#2E4049"/>
<path d="M103.582 173.556H93.5859V183.552H103.582V173.556Z" fill="#2E4049"/>
<path d="M153.565 173.556H143.569V183.552H153.565V173.556Z" fill="#2E4049"/>
<path d="M163.561 173.556H153.564V183.552H163.561V173.556Z" fill="#2E4049"/>
<path d="M173.555 173.556H163.559V183.552H173.555V173.556Z" fill="#2E4049"/>
<path d="M183.549 173.556H173.553V183.552H183.549V173.556Z" fill="#2E4049"/>
<path d="M193.544 173.556H183.548V183.552H193.544V173.556Z" fill="#2E4049"/>
<path d="M213.538 173.556H203.542V183.552H213.538V173.556Z" fill="#2E4049"/>
<path d="M243.527 173.556H233.531V183.552H243.527V173.556Z" fill="#2E4049"/>
<path d="M253.521 173.556H243.525V183.552H253.521V173.556Z" fill="#2E4049"/>
<path d="M263.517 173.556H253.521V183.552H263.517V173.556Z" fill="#2E4049"/>
<path d="M63.5986 183.55H53.6025V193.546H63.5986V183.55Z" fill="#2E4049"/>
<path d="M73.5928 183.55H63.5967V193.546H73.5928V183.55Z" fill="#2E4049"/>
<path d="M93.5869 183.553H83.5908V193.549H93.5869V183.553Z" fill="#2E4049"/>
<path d="M133.571 183.55H123.575V193.546H133.571V183.55Z" fill="#2E4049"/>
<path d="M143.565 183.55H133.569V193.546H143.565V183.55Z" fill="#2E4049"/>
<path d="M153.565 183.55H143.569V193.546H153.565V183.55Z" fill="#2E4049"/>
<path d="M173.555 183.553H163.559V193.549H173.555V183.553Z" fill="#2E4049"/>
<path d="M193.544 183.553H183.548V193.549H193.544V183.553Z" fill="#2E4049"/>
<path d="M203.544 183.553H193.548V193.549H203.544V183.553Z" fill="#2E4049"/>
<path d="M223.538 183.55H213.542V193.546H223.538V183.55Z" fill="#2E4049"/>
<path d="M243.527 183.55H233.531V193.546H243.527V183.55Z" fill="#2E4049"/>
<path d="M253.521 183.55H243.525V193.546H253.521V183.55Z" fill="#2E4049"/>
<path d="M263.517 183.553H253.521V193.549H263.517V183.553Z" fill="#2E4049"/>
<path d="M273.517 183.553H263.521V193.549H273.517V183.553Z" fill="#2E4049"/>
<path d="M43.6035 193.548H33.6074V203.544H43.6035V193.548Z" fill="#2E4049"/>
<path d="M53.6035 193.548H43.6074V203.544H53.6035V193.548Z" fill="#2E4049"/>
<path d="M63.5986 193.548H53.6025V203.544H63.5986V193.548Z" fill="#2E4049"/>
<path d="M73.5928 193.548H63.5967V203.544H73.5928V193.548Z" fill="#2E4049"/>
<path d="M83.5928 193.548H73.5967V203.544H83.5928V193.548Z" fill="#2E4049"/>
<path d="M103.582 193.548H93.5859V203.544H103.582V193.548Z" fill="#2E4049"/>
<path d="M133.571 193.548H123.575V203.544H133.571V193.548Z" fill="#2E4049"/>
<path d="M163.561 193.548H153.564V203.544H163.561V193.548Z" fill="#2E4049"/>
<path d="M173.555 193.548H163.559V203.544H173.555V193.548Z" fill="#2E4049"/>
<path d="M203.544 193.548H193.548V203.544H203.544V193.548Z" fill="#2E4049"/>
<path d="M213.538 193.548H203.542V203.544H213.538V193.548Z" fill="#2E4049"/>
<path d="M223.532 193.548H213.536V203.544H223.532V193.548Z" fill="#2E4049"/>
<path d="M233.533 193.548H223.537V203.544H233.533V193.548Z" fill="#2E4049"/>
<path d="M243.527 193.548H233.531V203.544H243.527V193.548Z" fill="#2E4049"/>
<path d="M253.521 193.548H243.525V203.544H253.521V193.548Z" fill="#2E4049"/>
<path d="M263.517 193.548H253.521V203.544H263.517V193.548Z" fill="#2E4049"/>
<path d="M123.576 203.542H113.58V213.538H123.576V203.542Z" fill="#2E4049"/>
<path d="M133.571 203.545H123.575V213.541H133.571V203.545Z" fill="#2E4049"/>
<path d="M173.555 203.542H163.559V213.538H173.555V203.542Z" fill="#2E4049"/>
<path d="M183.549 203.542H173.553V213.538H183.549V203.542Z" fill="#2E4049"/>
<path d="M203.544 203.542H193.548V213.538H203.544V203.542Z" fill="#2E4049"/>
<path d="M243.527 203.545H233.531V213.541H243.527V203.545Z" fill="#2E4049"/>
<path d="M263.517 203.542H253.521V213.538H263.517V203.542Z" fill="#2E4049"/>
<path d="M43.6035 213.54H33.6074V223.536H43.6035V213.54Z" fill="#2E4049"/>
<path d="M53.6035 213.54H43.6074V223.536H53.6035V213.54Z" fill="#2E4049"/>
<path d="M63.5986 213.54H53.6025V223.536H63.5986V213.54Z" fill="#2E4049"/>
<path d="M73.5928 213.54H63.5967V223.536H73.5928V213.54Z" fill="#2E4049"/>
<path d="M83.5928 213.54H73.5967V223.536H83.5928V213.54Z" fill="#2E4049"/>
<path d="M93.5869 213.54H83.5908V223.536H93.5869V213.54Z" fill="#2E4049"/>
<path d="M103.582 213.54H93.5859V223.536H103.582V213.54Z" fill="#2E4049"/>
<path d="M143.565 213.54H133.569V223.536H143.565V213.54Z" fill="#2E4049"/>
<path d="M203.544 213.54H193.548V223.536H203.544V213.54Z" fill="#2E4049"/>
<path d="M223.532 213.54H213.536V223.536H223.532V213.54Z" fill="#2E4049"/>
<path d="M243.527 213.54H233.531V223.536H243.527V213.54Z" fill="#2E4049"/>
<path d="M253.521 213.54H243.525V223.536H253.521V213.54Z" fill="#2E4049"/>
<path d="M43.6035 223.537H33.6074V233.533H43.6035V223.537Z" fill="#2E4049"/>
<path d="M103.582 223.537H93.5859V233.533H103.582V223.537Z" fill="#2E4049"/>
<path d="M123.576 223.537H113.58V233.533H123.576V223.537Z" fill="#2E4049"/>
<path d="M163.561 223.537H153.564V233.533H163.561V223.537Z" fill="#2E4049"/>
<path d="M183.549 223.537H173.553V233.533H183.549V223.537Z" fill="#2E4049"/>
<path d="M203.544 223.537H193.548V233.533H203.544V223.537Z" fill="#2E4049"/>
<path d="M243.527 223.537H233.531V233.533H243.527V223.537Z" fill="#2E4049"/>
<path d="M253.521 223.537H243.525V233.533H253.521V223.537Z" fill="#2E4049"/>
<path d="M263.517 223.537H253.521V233.533H263.517V223.537Z" fill="#2E4049"/>
<path d="M273.517 223.537H263.521V233.533H273.517V223.537Z" fill="#2E4049"/>
<path d="M283.511 223.537H273.515V233.533H283.511V223.537Z" fill="#2E4049"/>
<path d="M43.6035 233.531H33.6074V243.527H43.6035V233.531Z" fill="#2E4049"/>
<path d="M63.5986 233.531H53.6025V243.527H63.5986V233.531Z" fill="#2E4049"/>
<path d="M73.5928 233.531H63.5967V243.527H73.5928V233.531Z" fill="#2E4049"/>
<path d="M83.5928 233.531H73.5967V243.527H83.5928V233.531Z" fill="#2E4049"/>
<path d="M103.582 233.531H93.5859V243.527H103.582V233.531Z" fill="#2E4049"/>
<path d="M123.576 233.531H113.58V243.527H123.576V233.531Z" fill="#2E4049"/>
<path d="M133.571 233.531H123.575V243.527H133.571V233.531Z" fill="#2E4049"/>
<path d="M143.565 233.531H133.569V243.527H143.565V233.531Z" fill="#2E4049"/>
<path d="M153.565 233.531H143.569V243.527H153.565V233.531Z" fill="#2E4049"/>
<path d="M173.555 233.531H163.559V243.527H173.555V233.531Z" fill="#2E4049"/>
<path d="M183.549 233.531H173.553V243.527H183.549V233.531Z" fill="#2E4049"/>
<path d="M203.544 233.531H193.548V243.527H203.544V233.531Z" fill="#2E4049"/>
<path d="M213.538 233.531H203.542V243.527H213.538V233.531Z" fill="#2E4049"/>
<path d="M223.538 233.531H213.542V243.527H223.538V233.531Z" fill="#2E4049"/>
<path d="M233.533 233.531H223.537V243.527H233.533V233.531Z" fill="#2E4049"/>
<path d="M243.527 233.531H233.531V243.527H243.527V233.531Z" fill="#2E4049"/>
<path d="M263.517 233.531H253.521V243.527H263.517V233.531Z" fill="#2E4049"/>
<path d="M283.511 233.531H273.515V243.527H283.511V233.531Z" fill="#2E4049"/>
<path d="M43.6035 243.529H33.6074V253.525H43.6035V243.529Z" fill="#2E4049"/>
<path d="M63.5986 243.529H53.6025V253.525H63.5986V243.529Z" fill="#2E4049"/>
<path d="M73.5928 243.529H63.5967V253.525H73.5928V243.529Z" fill="#2E4049"/>
<path d="M83.5928 243.529H73.5967V253.525H83.5928V243.529Z" fill="#2E4049"/>
<path d="M103.582 243.529H93.5859V253.525H103.582V243.529Z" fill="#2E4049"/>
<path d="M133.571 243.529H123.575V253.525H133.571V243.529Z" fill="#2E4049"/>
<path d="M163.561 243.529H153.564V253.525H163.561V243.529Z" fill="#2E4049"/>
<path d="M193.544 243.529H183.548V253.525H193.544V243.529Z" fill="#2E4049"/>
<path d="M213.538 243.529H203.542V253.525H213.538V243.529Z" fill="#2E4049"/>
<path d="M223.532 243.529H213.536V253.525H223.532V243.529Z" fill="#2E4049"/>
<path d="M233.533 243.529H223.537V253.525H233.533V243.529Z" fill="#2E4049"/>
<path d="M253.521 243.529H243.525V253.525H253.521V243.529Z" fill="#2E4049"/>
<path d="M263.517 243.529H253.521V253.525H263.517V243.529Z" fill="#2E4049"/>
<path d="M273.517 243.529H263.521V253.525H273.517V243.529Z" fill="#2E4049"/>
<path d="M283.511 243.529H273.515V253.525H283.511V243.529Z" fill="#2E4049"/>
<path d="M43.6035 253.526H33.6074V263.522H43.6035V253.526Z" fill="#2E4049"/>
<path d="M63.5986 253.526H53.6025V263.522H63.5986V253.526Z" fill="#2E4049"/>
<path d="M73.5928 253.526H63.5967V263.522H73.5928V253.526Z" fill="#2E4049"/>
<path d="M83.5928 253.526H73.5967V263.522H83.5928V253.526Z" fill="#2E4049"/>
<path d="M103.582 253.526H93.5859V263.522H103.582V253.526Z" fill="#2E4049"/>
<path d="M143.565 253.526H133.569V263.522H143.565V253.526Z" fill="#2E4049"/>
<path d="M153.565 253.526H143.569V263.522H153.565V253.526Z" fill="#2E4049"/>
<path d="M163.561 253.526H153.564V263.522H163.561V253.526Z" fill="#2E4049"/>
<path d="M173.555 253.526H163.559V263.522H173.555V253.526Z" fill="#2E4049"/>
<path d="M183.549 253.526H173.553V263.522H183.549V253.526Z" fill="#2E4049"/>
<path d="M203.544 253.526H193.548V263.522H203.544V253.526Z" fill="#2E4049"/>
<path d="M213.538 253.526H203.542V263.522H213.538V253.526Z" fill="#2E4049"/>
<path d="M223.538 253.526H213.542V263.522H223.538V253.526Z" fill="#2E4049"/>
<path d="M233.533 253.526H223.537V263.522H233.533V253.526Z" fill="#2E4049"/>
<path d="M273.517 253.526H263.521V263.522H273.517V253.526Z" fill="#2E4049"/>
<path d="M43.6035 263.521H33.6074V273.517H43.6035V263.521Z" fill="#2E4049"/>
<path d="M103.582 263.521H93.5859V273.517H103.582V263.521Z" fill="#2E4049"/>
<path d="M123.576 263.521H113.58V273.517H123.576V263.521Z" fill="#2E4049"/>
<path d="M143.565 263.521H133.569V273.517H143.565V263.521Z" fill="#2E4049"/>
<path d="M153.565 263.521H143.569V273.517H153.565V263.521Z" fill="#2E4049"/>
<path d="M173.555 263.521H163.559V273.517H173.555V263.521Z" fill="#2E4049"/>
<path d="M193.544 263.521H183.548V273.517H193.544V263.521Z" fill="#2E4049"/>
<path d="M233.533 263.521H223.537V273.517H233.533V263.521Z" fill="#2E4049"/>
<path d="M243.527 263.521H233.531V273.517H243.527V263.521Z" fill="#2E4049"/>
<path d="M253.521 263.521H243.525V273.517H253.521V263.521Z" fill="#2E4049"/>
<path d="M263.517 263.521H253.521V273.517H263.517V263.521Z" fill="#2E4049"/>
<path d="M273.517 263.521H263.521V273.517H273.517V263.521Z" fill="#2E4049"/>
<path d="M43.6035 273.515H33.6074V283.511H43.6035V273.515Z" fill="#2E4049"/>
<path d="M53.6035 273.515H43.6074V283.511H53.6035V273.515Z" fill="#2E4049"/>
<path d="M63.5986 273.515H53.6025V283.511H63.5986V273.515Z" fill="#2E4049"/>
<path d="M73.5928 273.515H63.5967V283.511H73.5928V273.515Z" fill="#2E4049"/>
<path d="M83.5928 273.515H73.5967V283.511H83.5928V273.515Z" fill="#2E4049"/>
<path d="M93.5869 273.515H83.5908V283.511H93.5869V273.515Z" fill="#2E4049"/>
<path d="M103.582 273.515H93.5859V283.511H103.582V273.515Z" fill="#2E4049"/>
<path d="M123.576 273.515H113.58V283.511H123.576V273.515Z" fill="#2E4049"/>
<path d="M133.571 273.515H123.575V283.511H133.571V273.515Z" fill="#2E4049"/>
<path d="M143.565 273.515H133.569V283.511H143.565V273.515Z" fill="#2E4049"/>
<path d="M163.561 273.515H153.564V283.511H163.561V273.515Z" fill="#2E4049"/>
<path d="M173.555 273.515H163.559V283.511H173.555V273.515Z" fill="#2E4049"/>
<path d="M193.544 273.515H183.548V283.511H193.544V273.515Z" fill="#2E4049"/>
<path d="M213.538 273.515H203.542V283.511H213.538V273.515Z" fill="#2E4049"/>
<path d="M223.538 273.515H213.542V283.511H223.538V273.515Z" fill="#2E4049"/>
<path d="M263.517 273.515H253.521V283.511H263.517V273.515Z" fill="#2E4049"/>
<path d="M273.517 273.515H263.521V283.511H273.517V273.515Z" fill="#2E4049"/>
<path d="M283.511 273.515H273.515V283.511H283.511V273.515Z" fill="#2E4049"/>
</svg>
