<svg width="109" height="109" viewBox="0 0 109 109" fill="none" xmlns="http://www.w3.org/2000/svg">
<path d="M94 0H15C6.71573 0 0 6.71573 0 15V94C0 102.284 6.71573 109 15 109H94C102.284 109 109 102.284 109 94V15C109 6.71573 102.284 0 94 0Z" fill="#F4F4F4"/>
<path d="M14.9468 11.5205H11.5205V14.9468H14.9468V11.5205Z" fill="#2E4049"/>
<path d="M18.3731 11.5205H14.9468V14.9468H18.3731V11.5205Z" fill="#2E4049"/>
<path d="M21.7993 11.5205H18.373V14.9468H21.7993V11.5205Z" fill="#2E4049"/>
<path d="M25.2256 11.5205H21.7993V14.9468H25.2256V11.5205Z" fill="#2E4049"/>
<path d="M28.652 11.5205H25.2256V14.9468H28.652V11.5205Z" fill="#2E4049"/>
<path d="M32.0782 11.5205H28.6519V14.9468H32.0782V11.5205Z" fill="#2E4049"/>
<path d="M35.5045 11.5205H32.0781V14.9468H35.5045V11.5205Z" fill="#2E4049"/>
<path d="M42.3575 11.5205H38.9312V14.9468H42.3575V11.5205Z" fill="#2E4049"/>
<path d="M59.4888 11.5205H56.0625V14.9468H59.4888V11.5205Z" fill="#2E4049"/>
<path d="M62.9151 11.5205H59.4888V14.9468H62.9151V11.5205Z" fill="#2E4049"/>
<path d="M66.3414 11.5205H62.915V14.9468H66.3414V11.5205Z" fill="#2E4049"/>
<path d="M69.7681 11.5205H66.3418V14.9468H69.7681V11.5205Z" fill="#2E4049"/>
<path d="M76.6205 11.5205H73.1942V14.9468H76.6205V11.5205Z" fill="#2E4049"/>
<path d="M80.0469 11.5205H76.6205V14.9468H80.0469V11.5205Z" fill="#2E4049"/>
<path d="M83.4733 11.5205H80.0469V14.9468H83.4733V11.5205Z" fill="#2E4049"/>
<path d="M86.8996 11.5205H83.4733V14.9468H86.8996V11.5205Z" fill="#2E4049"/>
<path d="M90.3257 11.5205H86.8994V14.9468H90.3257V11.5205Z" fill="#2E4049"/>
<path d="M93.7525 11.5205H90.3262V14.9468H93.7525V11.5205Z" fill="#2E4049"/>
<path d="M97.1788 11.5205H93.7524V14.9468H97.1788V11.5205Z" fill="#2E4049"/>
<path d="M14.9468 14.9473H11.5205V18.3736H14.9468V14.9473Z" fill="#2E4049"/>
<path d="M35.5045 14.9473H32.0781V18.3736H35.5045V14.9473Z" fill="#2E4049"/>
<path d="M42.3575 14.9473H38.9312V18.3736H42.3575V14.9473Z" fill="#2E4049"/>
<path d="M52.6363 14.9473H49.21V18.3736H52.6363V14.9473Z" fill="#2E4049"/>
<path d="M56.0626 14.9473H52.6362V18.3736H56.0626V14.9473Z" fill="#2E4049"/>
<path d="M69.7681 14.9473H66.3418V18.3736H69.7681V14.9473Z" fill="#2E4049"/>
<path d="M76.6207 14.9473H73.1943V18.3736H76.6207V14.9473Z" fill="#2E4049"/>
<path d="M97.1788 14.9473H93.7524V18.3736H97.1788V14.9473Z" fill="#2E4049"/>
<path d="M14.9468 18.373H11.5205V21.7994H14.9468V18.373Z" fill="#2E4049"/>
<path d="M21.7994 18.373H18.373V21.7994H21.7994V18.373Z" fill="#2E4049"/>
<path d="M25.2256 18.373H21.7993V21.7994H25.2256V18.373Z" fill="#2E4049"/>
<path d="M28.6519 18.373H25.2256V21.7994H28.6519V18.373Z" fill="#2E4049"/>
<path d="M35.5045 18.373H32.0781V21.7994H35.5045V18.373Z" fill="#2E4049"/>
<path d="M42.3575 18.373H38.9312V21.7994H42.3575V18.373Z" fill="#2E4049"/>
<path d="M45.7838 18.373H42.3574V21.7994H45.7838V18.373Z" fill="#2E4049"/>
<path d="M56.0626 18.373H52.6362V21.7994H56.0626V18.373Z" fill="#2E4049"/>
<path d="M66.3414 18.373H62.915V21.7994H66.3414V18.373Z" fill="#2E4049"/>
<path d="M69.7681 18.373H66.3418V21.7994H69.7681V18.373Z" fill="#2E4049"/>
<path d="M76.6207 18.373H73.1943V21.7994H76.6207V18.373Z" fill="#2E4049"/>
<path d="M83.4732 18.373H80.0469V21.7994H83.4732V18.373Z" fill="#2E4049"/>
<path d="M86.8995 18.373H83.4731V21.7994H86.8995V18.373Z" fill="#2E4049"/>
<path d="M90.3257 18.373H86.8994V21.7994H90.3257V18.373Z" fill="#2E4049"/>
<path d="M97.1788 18.373H93.7524V21.7994H97.1788V18.373Z" fill="#2E4049"/>
<path d="M14.9468 21.7998H11.5205V25.2261H14.9468V21.7998Z" fill="#2E4049"/>
<path d="M21.7994 21.7998H18.373V25.2261H21.7994V21.7998Z" fill="#2E4049"/>
<path d="M25.2256 21.7998H21.7993V25.2261H25.2256V21.7998Z" fill="#2E4049"/>
<path d="M28.6519 21.7998H25.2256V25.2261H28.6519V21.7998Z" fill="#2E4049"/>
<path d="M35.5045 21.7998H32.0781V25.2261H35.5045V21.7998Z" fill="#2E4049"/>
<path d="M42.3575 21.7998H38.9312V25.2261H42.3575V21.7998Z" fill="#2E4049"/>
<path d="M45.7838 21.7998H42.3574V25.2261H45.7838V21.7998Z" fill="#2E4049"/>
<path d="M49.21 21.7998H45.7837V25.2261H49.21V21.7998Z" fill="#2E4049"/>
<path d="M56.0626 21.7998H52.6362V25.2261H56.0626V21.7998Z" fill="#2E4049"/>
<path d="M69.7681 21.7998H66.3418V25.2261H69.7681V21.7998Z" fill="#2E4049"/>
<path d="M76.6207 21.7998H73.1943V25.2261H76.6207V21.7998Z" fill="#2E4049"/>
<path d="M83.4732 21.7998H80.0469V25.2261H83.4732V21.7998Z" fill="#2E4049"/>
<path d="M86.8995 21.7998H83.4731V25.2261H86.8995V21.7998Z" fill="#2E4049"/>
<path d="M90.3257 21.7998H86.8994V25.2261H90.3257V21.7998Z" fill="#2E4049"/>
<path d="M97.1788 21.7998H93.7524V25.2261H97.1788V21.7998Z" fill="#2E4049"/>
<path d="M14.9468 25.2256H11.5205V28.6519H14.9468V25.2256Z" fill="#2E4049"/>
<path d="M21.7994 25.2256H18.373V28.6519H21.7994V25.2256Z" fill="#2E4049"/>
<path d="M25.2256 25.2256H21.7993V28.6519H25.2256V25.2256Z" fill="#2E4049"/>
<path d="M28.6519 25.2256H25.2256V28.6519H28.6519V25.2256Z" fill="#2E4049"/>
<path d="M35.5045 25.2256H32.0781V28.6519H35.5045V25.2256Z" fill="#2E4049"/>
<path d="M45.7838 25.2256H42.3574V28.6519H45.7838V25.2256Z" fill="#2E4049"/>
<path d="M49.21 25.2256H45.7837V28.6519H49.21V25.2256Z" fill="#2E4049"/>
<path d="M56.0626 25.2256H52.6362V28.6519H56.0626V25.2256Z" fill="#2E4049"/>
<path d="M62.9151 25.2256H59.4888V28.6519H62.9151V25.2256Z" fill="#2E4049"/>
<path d="M66.3414 25.2256H62.915V28.6519H66.3414V25.2256Z" fill="#2E4049"/>
<path d="M69.7681 25.2256H66.3418V28.6519H69.7681V25.2256Z" fill="#2E4049"/>
<path d="M76.6207 25.2256H73.1943V28.6519H76.6207V25.2256Z" fill="#2E4049"/>
<path d="M83.4732 25.2256H80.0469V28.6519H83.4732V25.2256Z" fill="#2E4049"/>
<path d="M86.8995 25.2256H83.4731V28.6519H86.8995V25.2256Z" fill="#2E4049"/>
<path d="M90.3257 25.2256H86.8994V28.6519H90.3257V25.2256Z" fill="#2E4049"/>
<path d="M97.1788 25.2256H93.7524V28.6519H97.1788V25.2256Z" fill="#2E4049"/>
<path d="M14.9468 28.6523H11.5205V32.0787H14.9468V28.6523Z" fill="#2E4049"/>
<path d="M35.5045 28.6523H32.0781V32.0787H35.5045V28.6523Z" fill="#2E4049"/>
<path d="M42.3575 28.6523H38.9312V32.0787H42.3575V28.6523Z" fill="#2E4049"/>
<path d="M45.7837 28.6523H42.3574V32.0787H45.7837V28.6523Z" fill="#2E4049"/>
<path d="M49.21 28.6523H45.7836V32.0787H49.21V28.6523Z" fill="#2E4049"/>
<path d="M69.7681 28.6523H66.3418V32.0787H69.7681V28.6523Z" fill="#2E4049"/>
<path d="M76.6205 28.6523H73.1942V32.0787H76.6205V28.6523Z" fill="#2E4049"/>
<path d="M97.1788 28.6523H93.7524V32.0787H97.1788V28.6523Z" fill="#2E4049"/>
<path d="M14.9468 32.0781H11.5205V35.5045H14.9468V32.0781Z" fill="#2E4049"/>
<path d="M18.3731 32.0781H14.9468V35.5045H18.3731V32.0781Z" fill="#2E4049"/>
<path d="M21.7994 32.0781H18.373V35.5045H21.7994V32.0781Z" fill="#2E4049"/>
<path d="M25.2256 32.0781H21.7993V35.5045H25.2256V32.0781Z" fill="#2E4049"/>
<path d="M28.6519 32.0781H25.2256V35.5045H28.6519V32.0781Z" fill="#2E4049"/>
<path d="M32.0782 32.0781H28.6519V35.5045H32.0782V32.0781Z" fill="#2E4049"/>
<path d="M35.5045 32.0781H32.0781V35.5045H35.5045V32.0781Z" fill="#2E4049"/>
<path d="M42.3575 32.0781H38.9312V35.5045H42.3575V32.0781Z" fill="#2E4049"/>
<path d="M49.21 32.0781H45.7837V35.5045H49.21V32.0781Z" fill="#2E4049"/>
<path d="M56.0626 32.0781H52.6362V35.5045H56.0626V32.0781Z" fill="#2E4049"/>
<path d="M62.9151 32.0781H59.4888V35.5045H62.9151V32.0781Z" fill="#2E4049"/>
<path d="M69.7681 32.0781H66.3418V35.5045H69.7681V32.0781Z" fill="#2E4049"/>
<path d="M76.6207 32.0781H73.1943V35.5045H76.6207V32.0781Z" fill="#2E4049"/>
<path d="M80.0469 32.0781H76.6206V35.5045H80.0469V32.0781Z" fill="#2E4049"/>
<path d="M83.4732 32.0781H80.0469V35.5045H83.4732V32.0781Z" fill="#2E4049"/>
<path d="M86.8995 32.0781H83.4731V35.5045H86.8995V32.0781Z" fill="#2E4049"/>
<path d="M90.3257 32.0781H86.8994V35.5045H90.3257V32.0781Z" fill="#2E4049"/>
<path d="M93.7525 32.0781H90.3262V35.5045H93.7525V32.0781Z" fill="#2E4049"/>
<path d="M97.1788 32.0781H93.7524V35.5045H97.1788V32.0781Z" fill="#2E4049"/>
<path d="M49.21 35.5049H45.7836V38.9312H49.21V35.5049Z" fill="#2E4049"/>
<path d="M52.6363 35.5049H49.21V38.9312H52.6363V35.5049Z" fill="#2E4049"/>
<path d="M59.4888 35.5049H56.0625V38.9312H59.4888V35.5049Z" fill="#2E4049"/>
<path d="M69.7681 35.5049H66.3418V38.9312H69.7681V35.5049Z" fill="#2E4049"/>
<path d="M14.9468 38.9316H11.5205V42.358H14.9468V38.9316Z" fill="#2E4049"/>
<path d="M18.3731 38.9316H14.9468V42.358H18.3731V38.9316Z" fill="#2E4049"/>
<path d="M28.6519 38.9307H25.2256V42.357H28.6519V38.9307Z" fill="#2E4049"/>
<path d="M32.0782 38.9316H28.6519V42.358H32.0782V38.9316Z" fill="#2E4049"/>
<path d="M35.5045 38.9316H32.0781V42.358H35.5045V38.9316Z" fill="#2E4049"/>
<path d="M49.21 38.9307H45.7837V42.357H49.21V38.9307Z" fill="#2E4049"/>
<path d="M56.0626 38.9307H52.6362V42.357H56.0626V38.9307Z" fill="#2E4049"/>
<path d="M59.4888 38.9316H56.0625V42.358H59.4888V38.9316Z" fill="#2E4049"/>
<path d="M69.7681 38.9316H66.3418V42.358H69.7681V38.9316Z" fill="#2E4049"/>
<path d="M80.0469 38.9307H76.6206V42.357H80.0469V38.9307Z" fill="#2E4049"/>
<path d="M86.8995 38.9307H83.4731V42.357H86.8995V38.9307Z" fill="#2E4049"/>
<path d="M90.3257 38.9316H86.8994V42.358H90.3257V38.9316Z" fill="#2E4049"/>
<path d="M93.7525 38.9316H90.3262V42.358H93.7525V38.9316Z" fill="#2E4049"/>
<path d="M97.1788 38.9316H93.7524V42.358H97.1788V38.9316Z" fill="#2E4049"/>
<path d="M25.2256 42.3574H21.7993V45.7838H25.2256V42.3574Z" fill="#2E4049"/>
<path d="M32.0782 42.3574H28.6519V45.7838H32.0782V42.3574Z" fill="#2E4049"/>
<path d="M59.4888 42.3574H56.0625V45.7838H59.4888V42.3574Z" fill="#2E4049"/>
<path d="M62.9151 42.3574H59.4888V45.7838H62.9151V42.3574Z" fill="#2E4049"/>
<path d="M66.3414 42.3574H62.915V45.7838H66.3414V42.3574Z" fill="#2E4049"/>
<path d="M69.7681 42.3574H66.3418V45.7838H69.7681V42.3574Z" fill="#2E4049"/>
<path d="M83.4733 42.3574H80.0469V45.7838H83.4733V42.3574Z" fill="#2E4049"/>
<path d="M86.8996 42.3574H83.4733V45.7838H86.8996V42.3574Z" fill="#2E4049"/>
<path d="M93.7525 42.3574H90.3262V45.7838H93.7525V42.3574Z" fill="#2E4049"/>
<path d="M21.7994 45.7842H18.373V49.2105H21.7994V45.7842Z" fill="#2E4049"/>
<path d="M25.2256 45.7842H21.7993V49.2105H25.2256V45.7842Z" fill="#2E4049"/>
<path d="M32.0782 45.7842H28.6519V49.2105H32.0782V45.7842Z" fill="#2E4049"/>
<path d="M35.5045 45.7842H32.0781V49.2105H35.5045V45.7842Z" fill="#2E4049"/>
<path d="M45.7838 45.7842H42.3574V49.2105H45.7838V45.7842Z" fill="#2E4049"/>
<path d="M49.21 45.7842H45.7837V49.2105H49.21V45.7842Z" fill="#2E4049"/>
<path d="M66.3414 45.7842H62.915V49.2105H66.3414V45.7842Z" fill="#2E4049"/>
<path d="M69.7681 45.7842H66.3418V49.2105H69.7681V45.7842Z" fill="#2E4049"/>
<path d="M76.6207 45.7842H73.1943V49.2105H76.6207V45.7842Z" fill="#2E4049"/>
<path d="M80.0469 45.7842H76.6206V49.2105H80.0469V45.7842Z" fill="#2E4049"/>
<path d="M86.8995 45.7842H83.4731V49.2105H86.8995V45.7842Z" fill="#2E4049"/>
<path d="M90.3257 45.7842H86.8994V49.2105H90.3257V45.7842Z" fill="#2E4049"/>
<path d="M14.9468 49.21H11.5205V52.6363H14.9468V49.21Z" fill="#2E4049"/>
<path d="M21.7993 49.21H18.373V52.6363H21.7993V49.21Z" fill="#2E4049"/>
<path d="M25.2256 49.21H21.7993V52.6363H25.2256V49.21Z" fill="#2E4049"/>
<path d="M32.0782 49.21H28.6519V52.6363H32.0782V49.21Z" fill="#2E4049"/>
<path d="M45.7837 49.21H42.3574V52.6363H45.7837V49.21Z" fill="#2E4049"/>
<path d="M56.0626 49.21H52.6363V52.6363H56.0626V49.21Z" fill="#2E4049"/>
<path d="M62.9151 49.21H59.4888V52.6363H62.9151V49.21Z" fill="#2E4049"/>
<path d="M80.0469 49.21H76.6205V52.6363H80.0469V49.21Z" fill="#2E4049"/>
<path d="M90.3257 49.21H86.8994V52.6363H90.3257V49.21Z" fill="#2E4049"/>
<path d="M93.7525 49.21H90.3262V52.6363H93.7525V49.21Z" fill="#2E4049"/>
<path d="M14.9468 52.6367H11.5205V56.063H14.9468V52.6367Z" fill="#2E4049"/>
<path d="M18.3731 52.6367H14.9468V56.063H18.3731V52.6367Z" fill="#2E4049"/>
<path d="M35.5045 52.6367H32.0781V56.063H35.5045V52.6367Z" fill="#2E4049"/>
<path d="M52.6363 52.6367H49.21V56.063H52.6363V52.6367Z" fill="#2E4049"/>
<path d="M59.4888 52.6367H56.0625V56.063H59.4888V52.6367Z" fill="#2E4049"/>
<path d="M62.9151 52.6367H59.4888V56.063H62.9151V52.6367Z" fill="#2E4049"/>
<path d="M66.3414 52.6367H62.915V56.063H66.3414V52.6367Z" fill="#2E4049"/>
<path d="M73.1944 52.6367H69.7681V56.063H73.1944V52.6367Z" fill="#2E4049"/>
<path d="M76.6207 52.6367H73.1943V56.063H76.6207V52.6367Z" fill="#2E4049"/>
<path d="M80.0469 52.6367H76.6206V56.063H80.0469V52.6367Z" fill="#2E4049"/>
<path d="M86.8995 52.6367H83.4731V56.063H86.8995V52.6367Z" fill="#2E4049"/>
<path d="M90.3257 52.6367H86.8994V56.063H90.3257V52.6367Z" fill="#2E4049"/>
<path d="M93.7525 52.6367H90.3262V56.063H93.7525V52.6367Z" fill="#2E4049"/>
<path d="M97.1788 52.6367H93.7524V56.063H97.1788V52.6367Z" fill="#2E4049"/>
<path d="M14.9468 56.0625H11.5205V59.4888H14.9468V56.0625Z" fill="#2E4049"/>
<path d="M25.2256 56.0625H21.7993V59.4888H25.2256V56.0625Z" fill="#2E4049"/>
<path d="M45.7838 56.0625H42.3574V59.4888H45.7838V56.0625Z" fill="#2E4049"/>
<path d="M49.21 56.0625H45.7837V59.4888H49.21V56.0625Z" fill="#2E4049"/>
<path d="M56.0626 56.0625H52.6362V59.4888H56.0626V56.0625Z" fill="#2E4049"/>
<path d="M66.3414 56.0625H62.915V59.4888H66.3414V56.0625Z" fill="#2E4049"/>
<path d="M69.7681 56.0625H66.3418V59.4888H69.7681V56.0625Z" fill="#2E4049"/>
<path d="M73.1944 56.0625H69.7681V59.4888H73.1944V56.0625Z" fill="#2E4049"/>
<path d="M83.4732 56.0625H80.0469V59.4888H83.4732V56.0625Z" fill="#2E4049"/>
<path d="M93.7525 56.0625H90.3262V59.4888H93.7525V56.0625Z" fill="#2E4049"/>
<path d="M21.7994 59.4893H18.373V62.9156H21.7994V59.4893Z" fill="#2E4049"/>
<path d="M25.2256 59.4893H21.7993V62.9156H25.2256V59.4893Z" fill="#2E4049"/>
<path d="M28.6519 59.4893H25.2256V62.9156H28.6519V59.4893Z" fill="#2E4049"/>
<path d="M35.5045 59.4893H32.0781V62.9156H35.5045V59.4893Z" fill="#2E4049"/>
<path d="M52.6363 59.4893H49.21V62.9156H52.6363V59.4893Z" fill="#2E4049"/>
<path d="M56.0626 59.4893H52.6362V62.9156H56.0626V59.4893Z" fill="#2E4049"/>
<path d="M59.4888 59.4893H56.0625V62.9156H59.4888V59.4893Z" fill="#2E4049"/>
<path d="M62.9151 59.4893H59.4888V62.9156H62.9151V59.4893Z" fill="#2E4049"/>
<path d="M66.3414 59.4893H62.915V62.9156H66.3414V59.4893Z" fill="#2E4049"/>
<path d="M73.1944 59.4893H69.7681V62.9156H73.1944V59.4893Z" fill="#2E4049"/>
<path d="M83.4732 59.4893H80.0469V62.9156H83.4732V59.4893Z" fill="#2E4049"/>
<path d="M86.8995 59.4893H83.4731V62.9156H86.8995V59.4893Z" fill="#2E4049"/>
<path d="M90.3257 59.4893H86.8994V62.9156H90.3257V59.4893Z" fill="#2E4049"/>
<path d="M21.7994 62.915H18.373V66.3414H21.7994V62.915Z" fill="#2E4049"/>
<path d="M25.2256 62.915H21.7993V66.3414H25.2256V62.915Z" fill="#2E4049"/>
<path d="M32.0782 62.916H28.6519V66.3423H32.0782V62.916Z" fill="#2E4049"/>
<path d="M45.7838 62.915H42.3574V66.3414H45.7838V62.915Z" fill="#2E4049"/>
<path d="M49.21 62.915H45.7837V66.3414H49.21V62.915Z" fill="#2E4049"/>
<path d="M52.6363 62.915H49.21V66.3414H52.6363V62.915Z" fill="#2E4049"/>
<path d="M59.4888 62.916H56.0625V66.3423H59.4888V62.916Z" fill="#2E4049"/>
<path d="M66.3414 62.916H62.915V66.3423H66.3414V62.916Z" fill="#2E4049"/>
<path d="M69.7681 62.916H66.3418V66.3423H69.7681V62.916Z" fill="#2E4049"/>
<path d="M76.6207 62.915H73.1943V66.3414H76.6207V62.915Z" fill="#2E4049"/>
<path d="M83.4732 62.915H80.0469V66.3414H83.4732V62.915Z" fill="#2E4049"/>
<path d="M86.8995 62.915H83.4731V66.3414H86.8995V62.915Z" fill="#2E4049"/>
<path d="M90.3257 62.916H86.8994V66.3423H90.3257V62.916Z" fill="#2E4049"/>
<path d="M93.7525 62.916H90.3262V66.3423H93.7525V62.916Z" fill="#2E4049"/>
<path d="M14.9468 66.3418H11.5205V69.7681H14.9468V66.3418Z" fill="#2E4049"/>
<path d="M18.3731 66.3418H14.9468V69.7681H18.3731V66.3418Z" fill="#2E4049"/>
<path d="M21.7993 66.3418H18.373V69.7681H21.7993V66.3418Z" fill="#2E4049"/>
<path d="M25.2256 66.3418H21.7993V69.7681H25.2256V66.3418Z" fill="#2E4049"/>
<path d="M28.652 66.3418H25.2256V69.7681H28.652V66.3418Z" fill="#2E4049"/>
<path d="M35.5045 66.3418H32.0781V69.7681H35.5045V66.3418Z" fill="#2E4049"/>
<path d="M45.7837 66.3418H42.3574V69.7681H45.7837V66.3418Z" fill="#2E4049"/>
<path d="M56.0626 66.3418H52.6363V69.7681H56.0626V66.3418Z" fill="#2E4049"/>
<path d="M59.4888 66.3418H56.0625V69.7681H59.4888V66.3418Z" fill="#2E4049"/>
<path d="M69.7681 66.3418H66.3418V69.7681H69.7681V66.3418Z" fill="#2E4049"/>
<path d="M73.1944 66.3418H69.7681V69.7681H73.1944V66.3418Z" fill="#2E4049"/>
<path d="M76.6205 66.3418H73.1942V69.7681H76.6205V66.3418Z" fill="#2E4049"/>
<path d="M80.0469 66.3418H76.6205V69.7681H80.0469V66.3418Z" fill="#2E4049"/>
<path d="M83.4733 66.3418H80.0469V69.7681H83.4733V66.3418Z" fill="#2E4049"/>
<path d="M86.8996 66.3418H83.4733V69.7681H86.8996V66.3418Z" fill="#2E4049"/>
<path d="M90.3257 66.3418H86.8994V69.7681H90.3257V66.3418Z" fill="#2E4049"/>
<path d="M42.3575 69.7676H38.9312V73.1939H42.3575V69.7676Z" fill="#2E4049"/>
<path d="M45.7838 69.7686H42.3574V73.1949H45.7838V69.7686Z" fill="#2E4049"/>
<path d="M59.4888 69.7676H56.0625V73.1939H59.4888V69.7676Z" fill="#2E4049"/>
<path d="M62.9151 69.7676H59.4888V73.1939H62.9151V69.7676Z" fill="#2E4049"/>
<path d="M69.7681 69.7676H66.3418V73.1939H69.7681V69.7676Z" fill="#2E4049"/>
<path d="M83.4732 69.7686H80.0469V73.1949H83.4732V69.7686Z" fill="#2E4049"/>
<path d="M90.3257 69.7676H86.8994V73.1939H90.3257V69.7676Z" fill="#2E4049"/>
<path d="M14.9468 73.1943H11.5205V76.6207H14.9468V73.1943Z" fill="#2E4049"/>
<path d="M18.3731 73.1943H14.9468V76.6207H18.3731V73.1943Z" fill="#2E4049"/>
<path d="M21.7993 73.1943H18.373V76.6207H21.7993V73.1943Z" fill="#2E4049"/>
<path d="M25.2256 73.1943H21.7993V76.6207H25.2256V73.1943Z" fill="#2E4049"/>
<path d="M28.652 73.1943H25.2256V76.6207H28.652V73.1943Z" fill="#2E4049"/>
<path d="M32.0782 73.1943H28.6519V76.6207H32.0782V73.1943Z" fill="#2E4049"/>
<path d="M35.5045 73.1943H32.0781V76.6207H35.5045V73.1943Z" fill="#2E4049"/>
<path d="M49.21 73.1943H45.7836V76.6207H49.21V73.1943Z" fill="#2E4049"/>
<path d="M69.7681 73.1943H66.3418V76.6207H69.7681V73.1943Z" fill="#2E4049"/>
<path d="M76.6205 73.1943H73.1942V76.6207H76.6205V73.1943Z" fill="#2E4049"/>
<path d="M83.4733 73.1943H80.0469V76.6207H83.4733V73.1943Z" fill="#2E4049"/>
<path d="M86.8996 73.1943H83.4733V76.6207H86.8996V73.1943Z" fill="#2E4049"/>
<path d="M14.9468 76.6211H11.5205V80.0474H14.9468V76.6211Z" fill="#2E4049"/>
<path d="M35.5045 76.6211H32.0781V80.0474H35.5045V76.6211Z" fill="#2E4049"/>
<path d="M42.3575 76.6211H38.9312V80.0474H42.3575V76.6211Z" fill="#2E4049"/>
<path d="M56.0626 76.6211H52.6362V80.0474H56.0626V76.6211Z" fill="#2E4049"/>
<path d="M62.9151 76.6211H59.4888V80.0474H62.9151V76.6211Z" fill="#2E4049"/>
<path d="M69.7681 76.6211H66.3418V80.0474H69.7681V76.6211Z" fill="#2E4049"/>
<path d="M83.4732 76.6211H80.0469V80.0474H83.4732V76.6211Z" fill="#2E4049"/>
<path d="M86.8995 76.6211H83.4731V80.0474H86.8995V76.6211Z" fill="#2E4049"/>
<path d="M90.3257 76.6211H86.8994V80.0474H90.3257V76.6211Z" fill="#2E4049"/>
<path d="M93.7525 76.6211H90.3262V80.0474H93.7525V76.6211Z" fill="#2E4049"/>
<path d="M97.1788 76.6211H93.7524V80.0474H97.1788V76.6211Z" fill="#2E4049"/>
<path d="M14.9468 80.0469H11.5205V83.4732H14.9468V80.0469Z" fill="#2E4049"/>
<path d="M21.7994 80.0469H18.373V83.4732H21.7994V80.0469Z" fill="#2E4049"/>
<path d="M25.2256 80.0469H21.7993V83.4732H25.2256V80.0469Z" fill="#2E4049"/>
<path d="M28.6519 80.0469H25.2256V83.4732H28.6519V80.0469Z" fill="#2E4049"/>
<path d="M35.5045 80.0469H32.0781V83.4732H35.5045V80.0469Z" fill="#2E4049"/>
<path d="M42.3575 80.0469H38.9312V83.4732H42.3575V80.0469Z" fill="#2E4049"/>
<path d="M45.7838 80.0469H42.3574V83.4732H45.7838V80.0469Z" fill="#2E4049"/>
<path d="M49.21 80.0469H45.7837V83.4732H49.21V80.0469Z" fill="#2E4049"/>
<path d="M52.6363 80.0469H49.21V83.4732H52.6363V80.0469Z" fill="#2E4049"/>
<path d="M59.4888 80.0469H56.0625V83.4732H59.4888V80.0469Z" fill="#2E4049"/>
<path d="M62.9151 80.0469H59.4888V83.4732H62.9151V80.0469Z" fill="#2E4049"/>
<path d="M69.7681 80.0469H66.3418V83.4732H69.7681V80.0469Z" fill="#2E4049"/>
<path d="M73.1944 80.0469H69.7681V83.4732H73.1944V80.0469Z" fill="#2E4049"/>
<path d="M76.6207 80.0469H73.1943V83.4732H76.6207V80.0469Z" fill="#2E4049"/>
<path d="M80.0469 80.0469H76.6206V83.4732H80.0469V80.0469Z" fill="#2E4049"/>
<path d="M83.4732 80.0469H80.0469V83.4732H83.4732V80.0469Z" fill="#2E4049"/>
<path d="M90.3257 80.0469H86.8994V83.4732H90.3257V80.0469Z" fill="#2E4049"/>
<path d="M97.1788 80.0469H93.7524V83.4732H97.1788V80.0469Z" fill="#2E4049"/>
<path d="M14.9468 83.4736H11.5205V86.9H14.9468V83.4736Z" fill="#2E4049"/>
<path d="M21.7993 83.4736H18.373V86.9H21.7993V83.4736Z" fill="#2E4049"/>
<path d="M25.2256 83.4736H21.7993V86.9H25.2256V83.4736Z" fill="#2E4049"/>
<path d="M28.652 83.4736H25.2256V86.9H28.652V83.4736Z" fill="#2E4049"/>
<path d="M35.5045 83.4736H32.0781V86.9H35.5045V83.4736Z" fill="#2E4049"/>
<path d="M45.7837 83.4736H42.3574V86.9H45.7837V83.4736Z" fill="#2E4049"/>
<path d="M56.0626 83.4736H52.6363V86.9H56.0626V83.4736Z" fill="#2E4049"/>
<path d="M66.3414 83.4736H62.915V86.9H66.3414V83.4736Z" fill="#2E4049"/>
<path d="M73.1944 83.4736H69.7681V86.9H73.1944V83.4736Z" fill="#2E4049"/>
<path d="M76.6205 83.4736H73.1942V86.9H76.6205V83.4736Z" fill="#2E4049"/>
<path d="M80.0469 83.4736H76.6205V86.9H80.0469V83.4736Z" fill="#2E4049"/>
<path d="M86.8996 83.4736H83.4733V86.9H86.8996V83.4736Z" fill="#2E4049"/>
<path d="M90.3257 83.4736H86.8994V86.9H90.3257V83.4736Z" fill="#2E4049"/>
<path d="M93.7525 83.4736H90.3262V86.9H93.7525V83.4736Z" fill="#2E4049"/>
<path d="M97.1788 83.4736H93.7524V86.9H97.1788V83.4736Z" fill="#2E4049"/>
<path d="M14.9468 86.9004H11.5205V90.3267H14.9468V86.9004Z" fill="#2E4049"/>
<path d="M21.7994 86.9004H18.373V90.3267H21.7994V86.9004Z" fill="#2E4049"/>
<path d="M25.2256 86.9004H21.7993V90.3267H25.2256V86.9004Z" fill="#2E4049"/>
<path d="M28.6519 86.9004H25.2256V90.3267H28.6519V86.9004Z" fill="#2E4049"/>
<path d="M35.5045 86.9004H32.0781V90.3267H35.5045V86.9004Z" fill="#2E4049"/>
<path d="M49.21 86.9004H45.7837V90.3267H49.21V86.9004Z" fill="#2E4049"/>
<path d="M52.6363 86.9004H49.21V90.3267H52.6363V86.9004Z" fill="#2E4049"/>
<path d="M56.0626 86.9004H52.6362V90.3267H56.0626V86.9004Z" fill="#2E4049"/>
<path d="M59.4888 86.9004H56.0625V90.3267H59.4888V86.9004Z" fill="#2E4049"/>
<path d="M62.9151 86.9004H59.4888V90.3267H62.9151V86.9004Z" fill="#2E4049"/>
<path d="M69.7681 86.9004H66.3418V90.3267H69.7681V86.9004Z" fill="#2E4049"/>
<path d="M73.1944 86.9004H69.7681V90.3267H73.1944V86.9004Z" fill="#2E4049"/>
<path d="M76.6207 86.9004H73.1943V90.3267H76.6207V86.9004Z" fill="#2E4049"/>
<path d="M80.0469 86.9004H76.6206V90.3267H80.0469V86.9004Z" fill="#2E4049"/>
<path d="M93.7525 86.9004H90.3262V90.3267H93.7525V86.9004Z" fill="#2E4049"/>
<path d="M14.9468 90.3262H11.5205V93.7525H14.9468V90.3262Z" fill="#2E4049"/>
<path d="M35.5045 90.3262H32.0781V93.7525H35.5045V90.3262Z" fill="#2E4049"/>
<path d="M42.3575 90.3262H38.9312V93.7525H42.3575V90.3262Z" fill="#2E4049"/>
<path d="M49.21 90.3262H45.7836V93.7525H49.21V90.3262Z" fill="#2E4049"/>
<path d="M52.6363 90.3262H49.21V93.7525H52.6363V90.3262Z" fill="#2E4049"/>
<path d="M59.4888 90.3262H56.0625V93.7525H59.4888V90.3262Z" fill="#2E4049"/>
<path d="M66.3414 90.3262H62.915V93.7525H66.3414V90.3262Z" fill="#2E4049"/>
<path d="M80.0469 90.3262H76.6205V93.7525H80.0469V90.3262Z" fill="#2E4049"/>
<path d="M83.4733 90.3262H80.0469V93.7525H83.4733V90.3262Z" fill="#2E4049"/>
<path d="M86.8996 90.3262H83.4733V93.7525H86.8996V90.3262Z" fill="#2E4049"/>
<path d="M90.3257 90.3262H86.8994V93.7525H90.3257V90.3262Z" fill="#2E4049"/>
<path d="M93.7525 90.3262H90.3262V93.7525H93.7525V90.3262Z" fill="#2E4049"/>
<path d="M14.9468 93.752H11.5205V97.1783H14.9468V93.752Z" fill="#2E4049"/>
<path d="M18.3731 93.752H14.9468V97.1783H18.3731V93.752Z" fill="#2E4049"/>
<path d="M21.7994 93.752H18.373V97.1783H21.7994V93.752Z" fill="#2E4049"/>
<path d="M25.2256 93.752H21.7993V97.1783H25.2256V93.752Z" fill="#2E4049"/>
<path d="M28.6519 93.752H25.2256V97.1783H28.6519V93.752Z" fill="#2E4049"/>
<path d="M32.0782 93.752H28.6519V97.1783H32.0782V93.752Z" fill="#2E4049"/>
<path d="M35.5045 93.752H32.0781V97.1783H35.5045V93.752Z" fill="#2E4049"/>
<path d="M42.3575 93.752H38.9312V97.1783H42.3575V93.752Z" fill="#2E4049"/>
<path d="M45.7838 93.752H42.3574V97.1783H45.7838V93.752Z" fill="#2E4049"/>
<path d="M49.21 93.752H45.7837V97.1783H49.21V93.752Z" fill="#2E4049"/>
<path d="M56.0626 93.752H52.6362V97.1783H56.0626V93.752Z" fill="#2E4049"/>
<path d="M59.4888 93.752H56.0625V97.1783H59.4888V93.752Z" fill="#2E4049"/>
<path d="M66.3414 93.752H62.915V97.1783H66.3414V93.752Z" fill="#2E4049"/>
<path d="M73.1944 93.752H69.7681V97.1783H73.1944V93.752Z" fill="#2E4049"/>
<path d="M76.6207 93.752H73.1943V97.1783H76.6207V93.752Z" fill="#2E4049"/>
<path d="M90.3257 93.752H86.8994V97.1783H90.3257V93.752Z" fill="#2E4049"/>
<path d="M93.7525 93.752H90.3262V97.1783H93.7525V93.752Z" fill="#2E4049"/>
<path d="M97.1788 93.752H93.7524V97.1783H97.1788V93.752Z" fill="#2E4049"/>
</svg>
