<svg width="20" height="16" viewBox="0 0 20 16" fill="none" xmlns="http://www.w3.org/2000/svg">
<path d="M19.3212 2.22503C18.6047 2.53633 17.8467 2.74143 17.071 2.83383C17.8862 2.35649 18.4992 1.59816 18.7952 0.70105C18.0245 1.15172 17.1827 1.46792 16.3059 1.63613C15.9366 1.24918 15.4926 0.941348 15.0007 0.731349C14.5088 0.52135 13.9794 0.413569 13.4445 0.414558C11.2791 0.414558 9.52672 2.14147 9.52672 4.27027C9.52519 4.56638 9.55912 4.86161 9.62779 5.14964C8.07504 5.07685 6.55457 4.68074 5.16367 3.98667C3.77277 3.29259 2.54207 2.31582 1.55029 1.11885C1.20235 1.70541 1.01834 2.37466 1.01749 3.05666C1.01749 4.39362 1.71502 5.5754 2.76828 6.26776C2.14426 6.25295 1.53302 6.08779 0.986456 5.78629V5.83404C0.986456 7.7042 2.33934 9.26002 4.12992 9.61416C3.7932 9.70392 3.44622 9.74939 3.09775 9.74944C2.85048 9.74987 2.60377 9.72588 2.36122 9.67782C2.859 11.2098 4.30778 12.3239 6.02395 12.3557C4.62944 13.4304 2.91734 14.0113 1.15676 14.007C0.844251 14.0066 0.532033 13.988 0.22168 13.9513C2.01273 15.095 4.09468 15.7 6.21972 15.6942C13.4362 15.6942 17.3786 9.81709 17.3786 4.71991C17.3786 4.55278 17.3742 4.38566 17.3663 4.22252C18.1315 3.67821 18.7935 3.00179 19.3212 2.22503V2.22503Z" fill="#2E4049"/>
</svg>
