<svg width="18" height="18" viewBox="0 0 18 18" fill="none" xmlns="http://www.w3.org/2000/svg">
<path d="M12.6268 1.90205C13.6109 1.90488 14.5539 2.2826 15.2498 2.95271C15.9456 3.62282 16.3379 4.53088 16.3408 5.47855V12.6308C16.3379 13.5785 15.9456 14.4865 15.2498 15.1566C14.5539 15.8267 13.6109 16.2045 12.6268 16.2073H5.19944C4.21532 16.2045 3.27234 15.8267 2.57645 15.1566C1.88057 14.4865 1.48832 13.5785 1.48539 12.6308V5.47855C1.48832 4.53088 1.88057 3.62282 2.57645 2.95271C3.27234 2.2826 4.21532 1.90488 5.19944 1.90205H12.6268ZM12.6268 0.47168H5.19944C2.33969 0.47168 0 2.72471 0 5.47855V12.6308C0 15.3846 2.33969 17.6377 5.19944 17.6377H12.6268C15.4865 17.6377 17.8262 15.3846 17.8262 12.6308V5.47855C17.8262 2.72471 15.4865 0.47168 12.6268 0.47168Z" fill="white"/>
<path d="M13.7414 5.47876C13.521 5.47876 13.3056 5.41583 13.1224 5.29794C12.9392 5.18006 12.7964 5.0125 12.7121 4.81645C12.6277 4.62041 12.6057 4.40469 12.6487 4.19657C12.6916 3.98846 12.7978 3.79729 12.9536 3.64725C13.1094 3.4972 13.3079 3.39502 13.524 3.35362C13.7401 3.31223 13.9642 3.33347 14.1677 3.41468C14.3713 3.49588 14.5453 3.63339 14.6678 3.80983C14.7902 3.98626 14.8555 4.19369 14.8555 4.40588C14.8558 4.54686 14.8272 4.68651 14.7714 4.81681C14.7155 4.94712 14.6334 5.06551 14.5299 5.16519C14.4264 5.26488 14.3034 5.3439 14.1681 5.39771C14.0328 5.45152 13.8878 5.47906 13.7414 5.47876ZM8.91358 6.19375C9.50123 6.19375 10.0757 6.36155 10.5643 6.67594C11.0529 6.99032 11.4337 7.43717 11.6586 7.95997C11.8835 8.48277 11.9423 9.05805 11.8277 9.61305C11.713 10.1681 11.43 10.6779 11.0145 11.078C10.599 11.4781 10.0696 11.7506 9.49323 11.861C8.91688 11.9714 8.31948 11.9148 7.77657 11.6982C7.23366 11.4817 6.76963 11.1149 6.44315 10.6444C6.11667 10.1739 5.94242 9.62075 5.94242 9.05488C5.94326 8.29631 6.25656 7.56904 6.81358 7.03265C7.3706 6.49626 8.12584 6.19456 8.91358 6.19375ZM8.91358 4.76338C8.03216 4.76338 7.17053 5.01507 6.43766 5.48663C5.70478 5.95818 5.13357 6.62842 4.79627 7.41259C4.45896 8.19676 4.37071 9.05964 4.54266 9.89211C4.71462 10.7246 5.13907 11.4892 5.76233 12.0894C6.38559 12.6896 7.17967 13.0983 8.04415 13.2639C8.90864 13.4295 9.8047 13.3445 10.619 13.0197C11.4334 12.6949 12.1294 12.1448 12.6191 11.4391C13.1088 10.7334 13.3701 9.90365 13.3701 9.05488C13.3701 7.9167 12.9006 6.82514 12.0648 6.02033C11.2291 5.21552 10.0955 4.76338 8.91358 4.76338Z" fill="white"/>
</svg>
