<svg width="19" height="19" viewBox="0 0 19 19" fill="none" xmlns="http://www.w3.org/2000/svg">
<path d="M9.80856 0C4.80721 0 0.751953 4.05345 0.751953 9.05256C0.751953 12.7585 2.98376 15.943 6.17379 17.3454C6.14953 16.7149 6.16974 15.9551 6.33147 15.2681C6.50532 14.5326 7.49589 10.3337 7.49589 10.3337C7.49589 10.3337 7.20478 9.75575 7.20478 8.90304C7.20478 7.56132 7.98107 6.55907 8.95142 6.55907C9.77621 6.55907 10.1724 7.17739 10.1724 7.91695C10.1724 8.74542 9.64279 9.98207 9.3719 11.1298C9.14549 12.0916 9.85303 12.8716 10.8032 12.8716C12.5175 12.8716 13.6738 10.6691 13.6738 8.0584C13.6738 6.07411 12.3355 4.59094 9.90559 4.59094C7.16031 4.59094 5.44602 6.63989 5.44602 8.92728C5.44602 9.71534 5.68053 10.273 6.04441 10.7014C6.21018 10.8994 6.23443 10.9803 6.17379 11.2066C6.12931 11.3723 6.03228 11.7724 5.9878 11.934C5.92716 12.1644 5.74117 12.2452 5.53497 12.1603C4.26947 11.6431 3.67918 10.2609 3.67918 8.70097C3.67918 6.13069 5.85034 3.04716 10.1522 3.04716C13.6091 3.04716 15.8854 5.54874 15.8854 8.23217C15.8854 11.7845 13.9083 14.4356 10.9972 14.4356C10.0188 14.4356 9.10101 13.9062 8.78565 13.3081C8.78565 13.3081 8.26004 15.3934 8.14683 15.7975C7.95681 16.4967 7.5808 17.1918 7.23713 17.7374C8.07078 17.9832 8.93535 18.1084 9.80452 18.1092C14.8059 18.1092 18.8611 14.0557 18.8611 9.05661C18.8611 4.05749 14.8099 0 9.80856 0Z" fill="white"/>
</svg>
