<svg width="60" height="60" viewBox="0 0 60 60" fill="none" xmlns="http://www.w3.org/2000/svg">
<circle cx="30" cy="30" r="30" fill="#384C56"/>
<path d="M33.6585 22.5472C34.7231 22.5503 35.7431 22.9589 36.4958 23.6838C37.2486 24.4086 37.6729 25.3909 37.6761 26.416V34.1527C37.6729 35.1778 37.2486 36.16 36.4958 36.8849C35.7431 37.6098 34.7231 38.0183 33.6585 38.0214H25.6243C24.5598 38.0183 23.5397 37.6098 22.787 36.8849C22.0342 36.16 21.6099 35.1778 21.6068 34.1527V26.416C21.6099 25.3909 22.0342 24.4086 22.787 23.6838C23.5397 22.9589 24.5598 22.5503 25.6243 22.5472H33.6585ZM33.6585 21H25.6243C22.5309 21 20 23.4371 20 26.416V34.1527C20 37.1315 22.5309 39.5686 25.6243 39.5686H33.6585C36.752 39.5686 39.2828 37.1315 39.2828 34.1527V26.416C39.2828 23.4371 36.752 21 33.6585 21Z" fill="white"/>
<path d="M34.8633 26.4168C34.6249 26.4168 34.3919 26.3487 34.1937 26.2212C33.9956 26.0937 33.8411 25.9124 33.7499 25.7004C33.6587 25.4883 33.6348 25.255 33.6813 25.0298C33.7278 24.8047 33.8426 24.5979 34.0111 24.4356C34.1797 24.2733 34.3944 24.1628 34.6282 24.118C34.862 24.0732 35.1043 24.0962 35.3245 24.184C35.5447 24.2719 35.7329 24.4206 35.8654 24.6115C35.9978 24.8023 36.0685 25.0267 36.0685 25.2562C36.0688 25.4087 36.0379 25.5598 35.9774 25.7008C35.917 25.8417 35.8282 25.9698 35.7163 26.0776C35.6043 26.1854 35.4713 26.2709 35.3249 26.3291C35.1785 26.3873 35.0217 26.4171 34.8633 26.4168ZM29.641 27.1902C30.2767 27.1902 30.8981 27.3717 31.4266 27.7118C31.9551 28.0519 32.3671 28.5352 32.6103 29.1007C32.8536 29.6663 32.9172 30.2885 32.7932 30.8889C32.6692 31.4893 32.3631 32.0407 31.9136 32.4735C31.4641 32.9064 30.8915 33.2011 30.268 33.3206C29.6446 33.44 28.9984 33.3787 28.4111 33.1444C27.8238 32.9102 27.3219 32.5135 26.9687 32.0046C26.6156 31.4956 26.4271 30.8972 26.4271 30.2851C26.428 29.4646 26.7669 28.6779 27.3694 28.0977C27.972 27.5174 28.7889 27.1911 29.641 27.1902ZM29.641 25.643C28.6876 25.643 27.7555 25.9152 26.9628 26.4253C26.17 26.9354 25.5521 27.6604 25.1873 28.5086C24.8224 29.3569 24.7269 30.2903 24.9129 31.1908C25.099 32.0912 25.5581 32.9184 26.2323 33.5676C26.9065 34.2168 27.7654 34.659 28.7005 34.8381C29.6357 35.0172 30.605 34.9253 31.4858 34.5739C32.3667 34.2226 33.1196 33.6276 33.6493 32.8642C34.179 32.1008 34.4617 31.2032 34.4617 30.2851C34.4617 29.0539 33.9538 27.8732 33.0498 27.0026C32.1457 26.132 30.9196 25.643 29.641 25.643Z" fill="white"/>
</svg>
