<svg width="60" height="60" viewBox="0 0 60 60" fill="none" xmlns="http://www.w3.org/2000/svg">
<circle cx="30" cy="30" r="30" fill="#384C56"/>
<path fill-rule="evenodd" clip-rule="evenodd" d="M39.2828 30.2843C39.2828 25.1572 34.9657 21 29.6414 21C24.3171 21 20 25.1572 20 30.2843C20 34.9182 23.5251 38.7592 28.1349 39.4563V32.9689H25.6863V30.2843H28.1349V28.2389C28.1349 25.9124 29.5747 24.6263 31.7767 24.6263C32.8317 24.6263 33.9353 24.8078 33.9353 24.8078V27.0928H32.7189C31.5219 27.0928 31.1475 27.8082 31.1475 28.5435V30.2843H33.8212L33.3942 32.9689H31.1479V39.4572C35.7577 38.7604 39.2828 34.9194 39.2828 30.2843Z" fill="white"/>
</svg>
