<svg width="20" height="16" viewBox="0 0 20 16" fill="none" xmlns="http://www.w3.org/2000/svg">
<path d="M19.7519 2.22552C19.0354 2.53682 18.2774 2.74192 17.5017 2.83432C18.3169 2.35698 18.9299 1.59864 19.2258 0.701538C18.4551 1.1522 17.6133 1.46841 16.7365 1.63662C16.3673 1.24967 15.9233 0.941836 15.4314 0.731837C14.9395 0.521838 14.41 0.414057 13.8752 0.415046C11.7098 0.415046 9.95739 2.14196 9.95739 4.27076C9.95585 4.56687 9.98978 4.86209 10.0585 5.15013C8.5057 5.07734 6.98524 4.68123 5.59434 3.98715C4.20344 3.29307 2.97273 2.31631 1.98095 1.11934C1.63301 1.7059 1.44901 2.37515 1.44816 3.05714C1.44816 4.39411 2.14569 5.57589 3.19895 6.26825C2.57492 6.25344 1.96368 6.08828 1.41712 5.78678V5.83453C1.41712 7.70469 2.77 9.26051 4.56058 9.61464C4.22387 9.7044 3.87689 9.74988 3.52841 9.74993C3.28114 9.75036 3.03444 9.72637 2.79189 9.67831C3.28967 11.2102 4.73845 12.3244 6.45462 12.3562C5.0601 13.4309 3.34801 14.0118 1.58742 14.0075C1.27492 14.0071 0.962697 13.9885 0.652344 13.9518C2.44339 15.0955 4.52534 15.7004 6.65039 15.6947C13.8668 15.6947 17.8093 9.81758 17.8093 4.72039C17.8093 4.55327 17.8049 4.38615 17.7969 4.22301C18.5622 3.6787 19.2242 3.00228 19.7519 2.22552Z" fill="white"/>
</svg>
