<svg width="20" height="16" viewBox="0 0 20 16" fill="none" xmlns="http://www.w3.org/2000/svg">
<path d="M19.3222 2.22503C18.6057 2.53633 17.8477 2.74143 17.072 2.83383C17.8872 2.35649 18.5002 1.59816 18.7961 0.70105C18.0254 1.15172 17.1836 1.46792 16.3068 1.63613C15.9376 1.24918 15.4936 0.941348 15.0017 0.731349C14.5098 0.52135 13.9803 0.413569 13.4455 0.414558C11.2801 0.414558 9.5277 2.14147 9.5277 4.27027C9.52616 4.56638 9.56009 4.86161 9.62877 5.14964C8.07601 5.07685 6.55555 4.68074 5.16465 3.98667C3.77375 3.29259 2.54304 2.31582 1.55127 1.11885C1.20333 1.70541 1.01932 2.37466 1.01847 3.05666C1.01847 4.39362 1.716 5.5754 2.76926 6.26776C2.14523 6.25295 1.53399 6.08779 0.987433 5.78629V5.83404C0.987433 7.7042 2.34031 9.26002 4.13089 9.61415C3.79418 9.70392 3.4472 9.74939 3.09872 9.74944C2.85146 9.74987 2.60475 9.72588 2.3622 9.67782C2.85998 11.2098 4.30876 12.3239 6.02493 12.3557C4.63042 13.4304 2.91832 14.0113 1.15774 14.007C0.845228 14.0066 0.53301 13.988 0.222656 13.9513C2.0137 15.095 4.09566 15.7 6.2207 15.6942C13.4371 15.6942 17.3796 9.81709 17.3796 4.71991C17.3796 4.55278 17.3752 4.38566 17.3673 4.22252C18.1325 3.67821 18.7945 3.00179 19.3222 2.22503Z" fill="#2E4049"/>
</svg>
