<svg width="14" height="15" viewBox="0 0 14 15" fill="none" xmlns="http://www.w3.org/2000/svg">
<path d="M13.563 11.525C13.0286 10.9865 11.7342 10.2008 11.1062 9.88408C10.2884 9.47218 10.2211 9.43853 9.57831 9.91605C9.14955 10.2347 8.8645 10.5194 8.3627 10.4124C7.86091 10.3054 6.7705 9.70202 5.81572 8.75033C4.86094 7.79865 4.22251 6.67667 4.11515 6.1766C4.00779 5.67653 4.29722 5.39485 4.6129 4.96511C5.05782 4.35937 5.02416 4.25841 4.64386 3.44066C4.34737 2.80463 3.53864 1.52247 2.99815 0.990766C2.41996 0.419684 2.41996 0.520641 2.04741 0.675442C1.7441 0.803049 1.45312 0.958161 1.17811 1.13884C0.639631 1.49656 0.340778 1.79371 0.131782 2.24028C-0.0772131 2.68685 -0.171109 3.73377 0.908196 5.69436C1.9875 7.65495 2.74473 8.65746 4.31203 10.2203C5.87933 11.7831 7.0845 12.6234 8.84632 13.6114C11.0258 14.832 11.8618 14.5941 12.3097 14.3854C12.7577 14.1768 13.0562 13.8806 13.4146 13.3422C13.5958 13.0677 13.7512 12.777 13.879 12.474C14.0342 12.1028 14.1352 12.1028 13.563 11.525Z" fill="white"/>
</svg>
